<svg width="286" height="49" viewBox="0 0 286 49" fill="none" xmlns="http://www.w3.org/2000/svg">
<rect x="0.0595703" y="0.424805" width="285" height="48" rx="4" fill="white"/>
<path d="M41.4015 14.4248C44.7915 14.4248 47.0615 16.8048 47.0615 20.3448V28.5158C47.0615 32.0448 44.7915 34.4248 41.4015 34.4248H32.7315C29.3415 34.4248 27.0615 32.0448 27.0615 28.5158V20.3448C27.0615 16.8048 29.3415 14.4248 32.7315 14.4248H41.4015ZM41.2415 21.4248C41.0766 21.2614 40.8537 21.1697 40.6215 21.1697C40.3893 21.1697 40.1665 21.2614 40.0015 21.4248L35.8715 25.5548L34.1215 23.8048C33.9566 23.6414 33.7337 23.5497 33.5015 23.5497C33.2693 23.5497 33.0465 23.6414 32.8815 23.8048C32.5415 24.1448 32.5415 24.6948 32.8815 25.0448L35.2615 27.4148C35.4315 27.5848 35.6515 27.6648 35.8715 27.6648C36.1015 27.6648 36.3215 27.5848 36.4915 27.4148L41.2415 22.6648C41.5815 22.3248 41.5815 21.7748 41.2415 21.4248Z" fill="#121212"/>
<path d="M73.0796 23.7248C74.6996 23.4048 75.7396 22.4648 75.7396 20.5648C75.7396 18.2848 74.0396 16.9248 71.2396 16.9248H66.5596V30.9248H71.4996C74.2796 30.9248 75.9596 29.4448 75.9596 27.0248C75.9596 25.0248 74.5996 23.8648 73.0796 23.7248ZM71.1396 18.9448C72.5996 18.9448 73.4396 19.6448 73.4396 20.8648C73.4396 22.0648 72.5796 22.7848 71.1396 22.7848H68.8596V18.9448H71.1396ZM71.4596 28.9048H68.8596V24.8048H71.4796C72.7796 24.8048 73.6596 25.6048 73.6596 26.7848C73.6596 28.1248 72.8396 28.9048 71.4596 28.9048ZM78.1588 30.9248H80.3388V26.8048C80.3388 24.6848 81.2788 23.5248 82.8188 23.5248C83.1588 23.5248 83.3388 23.5248 83.6788 23.5648V21.5648C83.4388 21.5048 83.1588 21.4848 82.8188 21.4848C81.7988 21.4848 80.6788 22.0848 80.3388 23.4048V21.6048H78.1588V30.9248ZM86.563 20.2648C87.523 20.2648 88.183 19.5448 88.183 18.6448C88.183 17.7448 87.523 17.0248 86.563 17.0248C85.603 17.0248 84.943 17.7448 84.943 18.6448C84.943 19.5448 85.603 20.2648 86.563 20.2648ZM85.483 30.9248H87.643V21.6048H85.483V30.9248ZM98.8839 25.7848C98.8839 23.1648 97.0839 21.3648 94.4239 21.3648C91.5839 21.3648 89.7439 23.2848 89.7439 26.2648C89.7439 29.2848 91.5639 31.1648 94.5039 31.1648C96.7439 31.1648 98.5039 29.9448 98.7839 28.2048H96.5839C96.2239 28.9248 95.5839 29.2648 94.5039 29.2648C92.9239 29.2648 91.9639 28.4648 91.9039 26.9848H98.8239C98.8639 26.4248 98.8839 26.2048 98.8839 25.7848ZM91.9039 25.3248C91.9239 24.0048 92.8439 23.0848 94.3839 23.0848C95.8839 23.0848 96.7239 23.8848 96.7439 25.3248H91.9039ZM105.456 18.7448C105.776 18.7448 106.016 18.8048 106.316 18.8248V16.9848C106.016 16.8848 105.536 16.8048 104.856 16.8048C103.876 16.8048 101.696 17.2448 101.696 20.2448V21.6048H99.7955V23.4248H101.696V30.9248H103.876V23.4248H106.316V21.6048H103.876V20.2048C103.876 18.8448 104.796 18.7448 105.456 18.7448ZM108.582 32.3048L115.442 16.4048L113.682 15.6448L106.822 31.5448L108.582 32.3048ZM120.955 31.2648C123.735 31.2648 125.595 29.6448 125.595 27.2448C125.595 25.3448 124.715 24.1048 122.955 23.3848L120.895 22.5448C119.255 21.8848 118.575 21.2448 118.575 20.2848C118.575 19.2248 119.335 18.5448 120.655 18.5448C122.215 18.5448 123.055 19.4248 123.055 20.9648H125.355C125.355 18.3248 123.515 16.5848 120.735 16.5848C118.095 16.5848 116.255 18.1448 116.255 20.4248C116.255 22.2048 117.175 23.4648 118.935 24.1448L121.215 25.0648C122.795 25.7048 123.295 26.2448 123.295 27.3048C123.295 28.5648 122.455 29.2648 120.935 29.2648C119.195 29.2648 118.155 28.1648 118.155 26.3448H115.855C115.855 29.4848 117.715 31.2648 120.955 31.2648ZM132.91 21.3648C131.53 21.3648 130.45 21.9048 129.87 22.9048V16.9248H127.69V30.9248H129.87V25.8048C129.87 24.1648 130.67 23.2248 132.09 23.2248C133.61 23.2248 134.13 24.0848 134.13 26.0648V30.9248H136.31V25.0648C136.31 22.6248 135.15 21.3648 132.91 21.3648ZM143.238 31.1648C146.318 31.1648 148.158 29.0048 148.158 26.2648C148.158 23.5248 146.318 21.3648 143.238 21.3648C140.158 21.3648 138.318 23.5248 138.318 26.2648C138.318 29.0048 140.158 31.1648 143.238 31.1648ZM143.238 29.2248C141.478 29.2248 140.498 27.9648 140.498 26.2648C140.498 24.5648 141.478 23.3048 143.238 23.3048C144.998 23.3048 145.978 24.5648 145.978 26.2648C145.978 27.9648 144.998 29.2248 143.238 29.2248ZM150.249 30.9248H152.429V26.8048C152.429 24.6848 153.369 23.5248 154.909 23.5248C155.249 23.5248 155.429 23.5248 155.769 23.5648V21.5648C155.529 21.5048 155.249 21.4848 154.909 21.4848C153.889 21.4848 152.769 22.0848 152.429 23.4048V21.6048H150.249V30.9248ZM162.183 29.0848C161.323 29.0848 160.823 28.8848 160.823 27.2648V23.4248H162.963V21.6048H160.823V18.7848H158.643V21.6048H157.063V23.4248H158.643V27.7648C158.643 30.9048 160.603 31.0448 161.663 31.0448C162.303 31.0448 162.943 30.9848 163.283 30.9248V29.0048C163.063 29.0448 162.523 29.0848 162.183 29.0848ZM177.168 16.9248V22.8648C176.588 21.9248 175.468 21.3648 174.228 21.3648C171.328 21.3648 169.588 23.5248 169.588 26.2648C169.588 29.0048 171.168 31.1648 174.168 31.1648C175.308 31.1648 176.588 30.6048 177.168 29.6648V30.9248H179.328V16.9248H177.168ZM174.488 29.2248C172.788 29.2248 171.768 27.9648 171.768 26.2648C171.768 24.5648 172.788 23.3048 174.488 23.3048C176.348 23.3048 177.248 24.6648 177.248 26.2648C177.248 27.8648 176.348 29.2248 174.488 29.2248ZM190.564 25.7848C190.564 23.1648 188.764 21.3648 186.104 21.3648C183.264 21.3648 181.424 23.2848 181.424 26.2648C181.424 29.2848 183.244 31.1648 186.184 31.1648C188.424 31.1648 190.184 29.9448 190.464 28.2048H188.264C187.904 28.9248 187.264 29.2648 186.184 29.2648C184.604 29.2648 183.644 28.4648 183.584 26.9848H190.504C190.544 26.4248 190.564 26.2048 190.564 25.7848ZM183.584 25.3248C183.604 24.0048 184.524 23.0848 186.064 23.0848C187.564 23.0848 188.404 23.8848 188.424 25.3248H183.584ZM196.793 29.0848C195.933 29.0848 195.433 28.8848 195.433 27.2648V23.4248H197.573V21.6048H195.433V18.7848H193.253V21.6048H191.673V23.4248H193.253V27.7648C193.253 30.9048 195.213 31.0448 196.273 31.0448C196.913 31.0448 197.553 30.9848 197.893 30.9248V29.0048C197.673 29.0448 197.133 29.0848 196.793 29.0848ZM203.679 31.1648C204.819 31.1648 206.099 30.6048 206.679 29.6648V30.9248H208.839V21.6048H206.679V22.8648C206.099 21.9248 204.979 21.3648 203.739 21.3648C200.839 21.3648 199.099 23.5248 199.099 26.2648C199.099 29.0048 200.679 31.1648 203.679 31.1648ZM203.999 29.2248C202.299 29.2248 201.279 27.9648 201.279 26.2648C201.279 24.5648 202.299 23.3048 203.999 23.3048C205.859 23.3048 206.759 24.6648 206.759 26.2648C206.759 27.8648 205.859 29.2248 203.999 29.2248ZM212.715 20.2648C213.675 20.2648 214.335 19.5448 214.335 18.6448C214.335 17.7448 213.675 17.0248 212.715 17.0248C211.755 17.0248 211.095 17.7448 211.095 18.6448C211.095 19.5448 211.755 20.2648 212.715 20.2648ZM211.635 30.9248H213.795V21.6048H211.635V30.9248ZM216.596 30.9248H218.776V16.9248H216.596V30.9248ZM224.837 31.1648C227.217 31.1648 228.517 29.9048 228.517 28.1248C228.517 26.9248 227.617 25.9848 226.357 25.6248L224.137 24.9848C223.657 24.8448 223.337 24.5048 223.337 23.9848C223.337 23.4048 223.917 23.0248 224.677 23.0248C225.697 23.0248 226.297 23.4848 226.297 24.2648H228.437C228.437 22.6048 227.197 21.3648 224.757 21.3648C222.597 21.3648 221.177 22.5848 221.177 24.1048C221.177 25.3448 221.817 26.3048 223.197 26.6848L225.597 27.3448C226.137 27.4848 226.297 27.9048 226.297 28.3248C226.297 28.9848 225.777 29.4248 224.957 29.4248C223.837 29.4248 223.057 28.8648 223.057 28.0648H220.877C220.877 29.7648 222.437 31.1648 224.837 31.1648Z" fill="#121212"/>
</svg>
