<svg width="286" height="49" viewBox="0 0 286 49" fill="none" xmlns="http://www.w3.org/2000/svg">
<rect x="0.0605469" y="0.274414" width="285" height="48" rx="4" fill="#2A2849"/>
<path d="M41.4005 14.2764C44.7905 14.2764 47.0605 16.6564 47.0605 20.1964V28.3674C47.0605 31.8964 44.7905 34.2764 41.4005 34.2764H32.7305C29.3405 34.2764 27.0605 31.8964 27.0605 28.3674V20.1964C27.0605 16.6564 29.3405 14.2764 32.7305 14.2764H41.4005ZM41.2405 21.2764C41.0756 21.113 40.8528 21.0213 40.6205 21.0213C40.3883 21.0213 40.1655 21.113 40.0005 21.2764L35.8705 25.4064L34.1205 23.6564C33.9556 23.493 33.7328 23.4013 33.5005 23.4013C33.2683 23.4013 33.0455 23.493 32.8805 23.6564C32.5405 23.9964 32.5405 24.5464 32.8805 24.8964L35.2605 27.2664C35.4305 27.4364 35.6505 27.5164 35.8705 27.5164C36.1005 27.5164 36.3205 27.4364 36.4905 27.2664L41.2405 22.5164C41.5805 22.1764 41.5805 21.6264 41.2405 21.2764Z" fill="#D2D2D2"/>
<path opacity="0.6" d="M80.2405 23.7744C80.2405 19.7744 77.5405 16.4344 73.0005 16.4344C68.4605 16.4344 65.7605 19.7744 65.7605 23.7744C65.7605 27.7744 68.4605 31.1144 73.0005 31.1144H73.0405L75.0205 33.7144L77.0405 32.6944L75.5405 30.7144C78.5205 29.7144 80.2405 26.9544 80.2405 23.7744ZM73.0005 29.0544C69.9005 29.0544 68.1605 26.6744 68.1805 23.7744C68.1605 20.8744 69.9005 18.4944 73.0005 18.4944C76.1005 18.4944 77.8405 20.8744 77.8205 23.7744C77.8405 26.6744 76.1005 29.0544 73.0005 29.0544ZM85.6995 31.0144C87.0395 31.0144 88.0195 30.4744 88.5795 29.4744V30.7744H90.7595V21.4544H88.5795V26.7144C88.5795 28.0544 87.9795 29.1544 86.3195 29.1544C84.8995 29.1544 84.4195 28.2744 84.4195 26.7744V21.4544H82.2395V27.3144C82.2395 29.8144 83.6595 31.0144 85.6995 31.0144ZM101.99 25.6344C101.99 23.0144 100.19 21.2144 97.5304 21.2144C94.6904 21.2144 92.8504 23.1344 92.8504 26.1144C92.8504 29.1344 94.6704 31.0144 97.6104 31.0144C99.8504 31.0144 101.61 29.7944 101.89 28.0544H99.6904C99.3304 28.7744 98.6904 29.1144 97.6104 29.1144C96.0304 29.1144 95.0704 28.3144 95.0104 26.8344H101.93C101.97 26.2744 101.99 26.0544 101.99 25.6344ZM95.0104 25.1744C95.0304 23.8544 95.9504 22.9344 97.4904 22.9344C98.9904 22.9344 99.8304 23.7344 99.8504 25.1744H95.0104ZM107.357 31.0144C109.737 31.0144 111.037 29.7544 111.037 27.9744C111.037 26.7744 110.137 25.8344 108.877 25.4744L106.657 24.8344C106.177 24.6944 105.857 24.3544 105.857 23.8344C105.857 23.2544 106.437 22.8744 107.197 22.8744C108.217 22.8744 108.817 23.3344 108.817 24.1144H110.957C110.957 22.4544 109.717 21.2144 107.277 21.2144C105.117 21.2144 103.697 22.4344 103.697 23.9544C103.697 25.1944 104.337 26.1544 105.717 26.5344L108.117 27.1944C108.657 27.3344 108.817 27.7544 108.817 28.1744C108.817 28.8344 108.297 29.2744 107.477 29.2744C106.357 29.2744 105.577 28.7144 105.577 27.9144H103.397C103.397 29.6144 104.957 31.0144 107.357 31.0144ZM117.263 28.9344C116.403 28.9344 115.903 28.7344 115.903 27.1144V23.2744H118.043V21.4544H115.903V18.6344H113.723V21.4544H112.143V23.2744H113.723V27.6144C113.723 30.7544 115.683 30.8944 116.743 30.8944C117.383 30.8944 118.023 30.8344 118.363 30.7744V28.8544C118.143 28.8944 117.603 28.9344 117.263 28.9344ZM121.447 20.1144C122.407 20.1144 123.067 19.3944 123.067 18.4944C123.067 17.5944 122.407 16.8744 121.447 16.8744C120.487 16.8744 119.827 17.5944 119.827 18.4944C119.827 19.3944 120.487 20.1144 121.447 20.1144ZM120.367 30.7744H122.527V21.4544H120.367V30.7744ZM129.548 31.0144C132.628 31.0144 134.468 28.8544 134.468 26.1144C134.468 23.3744 132.628 21.2144 129.548 21.2144C126.468 21.2144 124.628 23.3744 124.628 26.1144C124.628 28.8544 126.468 31.0144 129.548 31.0144ZM129.548 29.0744C127.788 29.0744 126.808 27.8144 126.808 26.1144C126.808 24.4144 127.788 23.1544 129.548 23.1544C131.308 23.1544 132.288 24.4144 132.288 26.1144C132.288 27.8144 131.308 29.0744 129.548 29.0744ZM136.558 30.7744H138.738V25.6544C138.738 24.0144 139.538 23.0744 140.958 23.0744C142.478 23.0744 142.998 23.9344 142.998 25.9144V30.7744H145.178V24.9144C145.178 22.4744 144.018 21.2144 141.778 21.2144C140.398 21.2144 139.318 21.7544 138.738 22.7544V21.4544H136.558V30.7744ZM151.146 31.0144C153.526 31.0144 154.826 29.7544 154.826 27.9744C154.826 26.7744 153.926 25.8344 152.666 25.4744L150.446 24.8344C149.966 24.6944 149.646 24.3544 149.646 23.8344C149.646 23.2544 150.226 22.8744 150.986 22.8744C152.006 22.8744 152.606 23.3344 152.606 24.1144H154.746C154.746 22.4544 153.506 21.2144 151.066 21.2144C148.906 21.2144 147.486 22.4344 147.486 23.9544C147.486 25.1944 148.126 26.1544 149.506 26.5344L151.906 27.1944C152.446 27.3344 152.606 27.7544 152.606 28.1744C152.606 28.8344 152.086 29.2744 151.266 29.2744C150.146 29.2744 149.366 28.7144 149.366 27.9144H147.186C147.186 29.6144 148.746 31.0144 151.146 31.0144ZM172.367 24.2144H167.767V26.2344H168.967C168.907 28.2744 167.627 29.1144 166.307 29.1144C164.707 29.1144 163.787 28.0144 163.787 26.8344C163.787 25.4944 164.427 24.4944 166.407 24.4944H166.887V22.4144H166.367C164.667 22.4144 164.147 21.5744 164.147 20.3344C164.147 19.0544 165.207 18.3944 166.367 18.3944C168.007 18.3944 168.647 19.4944 168.647 20.8944H171.047C171.047 17.8544 168.987 16.4344 166.367 16.4344C163.627 16.4344 161.767 17.9944 161.767 20.3344C161.767 21.9344 162.707 22.9144 164.067 23.3944C162.767 23.7344 161.427 24.9944 161.427 26.8144C161.427 29.3344 163.487 31.1144 166.307 31.1144C168.967 31.1144 171.267 29.6144 171.347 26.2344H172.367V24.2144ZM186.821 30.7744H189.321L184.601 16.7744H182.581L177.861 30.7744H180.361L180.901 28.9944H186.281L186.821 30.7744ZM181.501 26.9344L183.581 19.9944L185.661 26.9344H181.501ZM191.011 30.7744H193.191V25.6544C193.191 24.0144 193.991 23.0744 195.411 23.0744C196.931 23.0744 197.451 23.9344 197.451 25.9144V30.7744H199.631V24.9144C199.631 22.4744 198.471 21.2144 196.231 21.2144C194.851 21.2144 193.771 21.7544 193.191 22.7544V21.4544H191.011V30.7744ZM205.599 31.0144C207.979 31.0144 209.279 29.7544 209.279 27.9744C209.279 26.7744 208.379 25.8344 207.119 25.4744L204.899 24.8344C204.419 24.6944 204.099 24.3544 204.099 23.8344C204.099 23.2544 204.679 22.8744 205.439 22.8744C206.459 22.8744 207.059 23.3344 207.059 24.1144H209.199C209.199 22.4544 207.959 21.2144 205.519 21.2144C203.359 21.2144 201.939 22.4344 201.939 23.9544C201.939 25.1944 202.579 26.1544 203.959 26.5344L206.359 27.1944C206.899 27.3344 207.059 27.7544 207.059 28.1744C207.059 28.8344 206.539 29.2744 205.719 29.2744C204.599 29.2744 203.819 28.7144 203.819 27.9144H201.639C201.639 29.6144 203.199 31.0144 205.599 31.0144ZM213.405 30.7744H215.245L217.505 24.1344L219.765 30.7744H221.605L225.045 21.4544H222.645L220.705 27.6144L218.685 21.4544H216.325L214.305 27.6144L212.365 21.4544H209.965L213.405 30.7744ZM234.588 25.6344C234.588 23.0144 232.788 21.2144 230.128 21.2144C227.288 21.2144 225.448 23.1344 225.448 26.1144C225.448 29.1344 227.268 31.0144 230.208 31.0144C232.448 31.0144 234.208 29.7944 234.488 28.0544H232.288C231.928 28.7744 231.288 29.1144 230.208 29.1144C228.628 29.1144 227.668 28.3144 227.608 26.8344H234.528C234.568 26.2744 234.588 26.0544 234.588 25.6344ZM227.608 25.1744C227.628 23.8544 228.548 22.9344 230.088 22.9344C231.588 22.9344 232.428 23.7344 232.448 25.1744H227.608ZM236.695 30.7744H238.875V26.6544C238.875 24.5344 239.815 23.3744 241.355 23.3744C241.695 23.3744 241.875 23.3744 242.215 23.4144V21.4144C241.975 21.3544 241.695 21.3344 241.355 21.3344C240.335 21.3344 239.215 21.9344 238.875 23.2544V21.4544H236.695V30.7744ZM247.084 31.0144C249.464 31.0144 250.764 29.7544 250.764 27.9744C250.764 26.7744 249.864 25.8344 248.604 25.4744L246.384 24.8344C245.904 24.6944 245.584 24.3544 245.584 23.8344C245.584 23.2544 246.164 22.8744 246.924 22.8744C247.944 22.8744 248.544 23.3344 248.544 24.1144H250.684C250.684 22.4544 249.444 21.2144 247.004 21.2144C244.844 21.2144 243.424 22.4344 243.424 23.9544C243.424 25.1944 244.064 26.1544 245.444 26.5344L247.844 27.1944C248.384 27.3344 248.544 27.7544 248.544 28.1744C248.544 28.8344 248.024 29.2744 247.204 29.2744C246.084 29.2744 245.304 28.7144 245.304 27.9144H243.124C243.124 29.6144 244.684 31.0144 247.084 31.0144Z" fill="white"/>
</svg>
