<svg width="286" height="49" viewBox="0 0 286 49" fill="none" xmlns="http://www.w3.org/2000/svg">
<rect x="0.0605469" y="0.424805" width="285" height="48" rx="4" fill="white"/>
<path d="M41.4025 14.4248C44.7925 14.4248 47.0625 16.8048 47.0625 20.3448V28.5158C47.0625 32.0448 44.7925 34.4248 41.4025 34.4248H32.7325C29.3425 34.4248 27.0625 32.0448 27.0625 28.5158V20.3448C27.0625 16.8048 29.3425 14.4248 32.7325 14.4248H41.4025ZM41.2425 21.4248C41.0775 21.2614 40.8547 21.1697 40.6225 21.1697C40.3903 21.1697 40.1675 21.2614 40.0025 21.4248L35.8725 25.5548L34.1225 23.8048C33.9575 23.6414 33.7347 23.5497 33.5025 23.5497C33.2703 23.5497 33.0475 23.6414 32.8825 23.8048C32.5425 24.1448 32.5425 24.6948 32.8825 25.0448L35.2625 27.4148C35.4325 27.5848 35.6525 27.6648 35.8725 27.6648C36.1025 27.6648 36.3225 27.5848 36.4925 27.4148L41.2425 22.6648C41.5825 22.3248 41.5825 21.7748 41.2425 21.4248Z" fill="#121212"/>
<path d="M71.7205 16.9248H66.5605V30.9248H68.8605V26.7248H71.7205C74.5205 26.7248 76.5205 24.6848 76.5205 21.8248C76.5205 18.9648 74.5205 16.9248 71.7205 16.9248ZM71.5805 24.6648H68.8605V18.9848H71.5805C73.1005 18.9848 74.2205 20.1848 74.2205 21.8248C74.2205 23.4648 73.1005 24.6648 71.5805 24.6648ZM78.1207 30.9248H80.3007V26.8048C80.3007 24.6848 81.2407 23.5248 82.7807 23.5248C83.1207 23.5248 83.3007 23.5248 83.6407 23.5648V21.5648C83.4007 21.5048 83.1207 21.4848 82.7807 21.4848C81.7607 21.4848 80.6407 22.0848 80.3007 23.4048V21.6048H78.1207V30.9248ZM89.372 31.1648C92.452 31.1648 94.292 29.0048 94.292 26.2648C94.292 23.5248 92.452 21.3648 89.372 21.3648C86.292 21.3648 84.452 23.5248 84.452 26.2648C84.452 29.0048 86.292 31.1648 89.372 31.1648ZM89.372 29.2248C87.612 29.2248 86.632 27.9648 86.632 26.2648C86.632 24.5648 87.612 23.3048 89.372 23.3048C91.132 23.3048 92.112 24.5648 92.112 26.2648C92.112 27.9648 91.132 29.2248 89.372 29.2248ZM98.6318 30.9248H100.392L104.432 21.6048H102.092L99.5118 28.0048L96.9318 21.6048H94.5918L98.6318 30.9248ZM106.916 20.2648C107.876 20.2648 108.536 19.5448 108.536 18.6448C108.536 17.7448 107.876 17.0248 106.916 17.0248C105.956 17.0248 105.296 17.7448 105.296 18.6448C105.296 19.5448 105.956 20.2648 106.916 20.2648ZM105.836 30.9248H107.996V21.6048H105.836V30.9248ZM117.676 16.9248V22.8648C117.096 21.9248 115.976 21.3648 114.736 21.3648C111.836 21.3648 110.096 23.5248 110.096 26.2648C110.096 29.0048 111.676 31.1648 114.676 31.1648C115.816 31.1648 117.096 30.6048 117.676 29.6648V30.9248H119.836V16.9248H117.676ZM114.996 29.2248C113.296 29.2248 112.276 27.9648 112.276 26.2648C112.276 24.5648 113.296 23.3048 114.996 23.3048C116.856 23.3048 117.756 24.6648 117.756 26.2648C117.756 27.8648 116.856 29.2248 114.996 29.2248ZM123.712 20.2648C124.672 20.2648 125.332 19.5448 125.332 18.6448C125.332 17.7448 124.672 17.0248 123.712 17.0248C122.752 17.0248 122.092 17.7448 122.092 18.6448C122.092 19.5448 122.752 20.2648 123.712 20.2648ZM122.632 30.9248H124.792V21.6048H122.632V30.9248ZM127.593 30.9248H129.773V25.8048C129.773 24.1648 130.573 23.2248 131.993 23.2248C133.513 23.2248 134.033 24.0848 134.033 26.0648V30.9248H136.213V25.0648C136.213 22.6248 135.053 21.3648 132.813 21.3648C131.433 21.3648 130.353 21.9048 129.773 22.9048V21.6048H127.593V30.9248ZM145.781 21.6048V22.8648C145.221 21.9248 144.101 21.3648 142.861 21.3648C140.061 21.3648 138.221 23.5248 138.221 26.2648C138.221 29.0048 139.901 31.1648 142.801 31.1648C143.941 31.1648 145.221 30.6048 145.781 29.6648V30.6848C145.781 32.7848 144.841 33.5648 143.061 33.5648C141.561 33.5648 140.781 32.9448 140.601 31.9848H138.321C138.361 33.0248 138.921 33.9248 139.801 34.5248C140.661 35.1048 141.841 35.3648 143.081 35.3648C144.421 35.3648 145.501 35.1248 146.281 34.5448C147.381 33.7448 147.961 32.3648 147.961 30.5248V21.6048H145.781ZM143.121 29.2248C141.481 29.2248 140.401 27.9648 140.401 26.2648C140.401 24.5648 141.481 23.3048 143.121 23.3048C144.901 23.3048 145.881 24.6648 145.881 26.2648C145.881 27.8648 144.901 29.2248 143.121 29.2248ZM162.637 21.6048V22.8648C162.057 21.9248 160.937 21.3648 159.697 21.3648C156.797 21.3648 155.057 23.5248 155.057 26.2648C155.057 29.0048 156.637 31.1648 159.637 31.1648C160.777 31.1648 162.057 30.6048 162.637 29.6648V35.1248H164.797V21.6048H162.637ZM159.957 29.2248C158.257 29.2248 157.237 27.9648 157.237 26.2648C157.237 24.5648 158.257 23.3048 159.957 23.3048C161.817 23.3048 162.717 24.6648 162.717 26.2648C162.717 27.8648 161.817 29.2248 159.957 29.2248ZM170.953 31.1648C172.293 31.1648 173.273 30.6248 173.833 29.6248V30.9248H176.013V21.6048H173.833V26.8648C173.833 28.2048 173.233 29.3048 171.573 29.3048C170.153 29.3048 169.673 28.4248 169.673 26.9248V21.6048H167.493V27.4648C167.493 29.9648 168.913 31.1648 170.953 31.1648ZM183.024 31.1648C186.104 31.1648 187.944 29.0048 187.944 26.2648C187.944 23.5248 186.104 21.3648 183.024 21.3648C179.944 21.3648 178.104 23.5248 178.104 26.2648C178.104 29.0048 179.944 31.1648 183.024 31.1648ZM183.024 29.2248C181.264 29.2248 180.284 27.9648 180.284 26.2648C180.284 24.5648 181.264 23.3048 183.024 23.3048C184.784 23.3048 185.764 24.5648 185.764 26.2648C185.764 27.9648 184.784 29.2248 183.024 29.2248ZM194.157 29.0848C193.297 29.0848 192.797 28.8848 192.797 27.2648V23.4248H194.937V21.6048H192.797V18.7848H190.617V21.6048H189.037V23.4248H190.617V27.7648C190.617 30.9048 192.577 31.0448 193.637 31.0448C194.277 31.0448 194.917 30.9848 195.257 30.9248V29.0048C195.037 29.0448 194.497 29.0848 194.157 29.0848ZM205.604 25.7848C205.604 23.1648 203.804 21.3648 201.144 21.3648C198.304 21.3648 196.464 23.2848 196.464 26.2648C196.464 29.2848 198.284 31.1648 201.224 31.1648C203.464 31.1648 205.224 29.9448 205.504 28.2048H203.304C202.944 28.9248 202.304 29.2648 201.224 29.2648C199.644 29.2648 198.684 28.4648 198.624 26.9848H205.544C205.584 26.4248 205.604 26.2048 205.604 25.7848ZM198.624 25.3248C198.644 24.0048 199.564 23.0848 201.104 23.0848C202.604 23.0848 203.444 23.8848 203.464 25.3248H198.624Z" fill="#121212"/>
</svg>
