<svg width="286" height="49" viewBox="0 0 286 49" fill="none" xmlns="http://www.w3.org/2000/svg">
<rect x="0.0605469" y="0.508789" width="285" height="48" rx="4" fill="#2A2849"/>
<path d="M41.4005 14.5107C44.7905 14.5107 47.0605 16.8907 47.0605 20.4307V28.6017C47.0605 32.1307 44.7905 34.5107 41.4005 34.5107H32.7305C29.3405 34.5107 27.0605 32.1307 27.0605 28.6017V20.4307C27.0605 16.8907 29.3405 14.5107 32.7305 14.5107H41.4005ZM41.2405 21.5107C41.0756 21.3473 40.8528 21.2557 40.6205 21.2557C40.3883 21.2557 40.1655 21.3473 40.0005 21.5107L35.8705 25.6407L34.1205 23.8907C33.9556 23.7273 33.7328 23.6357 33.5005 23.6357C33.2683 23.6357 33.0455 23.7273 32.8805 23.8907C32.5405 24.2307 32.5405 24.7807 32.8805 25.1307L35.2605 27.5007C35.4305 27.6707 35.6505 27.7507 35.8705 27.7507C36.1005 27.7507 36.3205 27.6707 36.4905 27.5007L41.2405 22.7507C41.5805 22.4107 41.5805 21.8607 41.2405 21.5107Z" fill="#D2D2D2"/>
<path opacity="0.6" d="M81.3205 23.9888H74.6605V26.0488H77.3605C76.8005 28.2488 75.2605 29.2888 72.9605 29.2888C70.0005 29.2888 68.1605 27.0088 68.1805 24.1088C68.1605 21.2088 69.7405 18.7288 73.1605 18.7288C75.1605 18.7288 76.4205 19.8088 76.7205 21.2088H79.2405C79.0005 18.6888 76.5805 16.6688 73.1605 16.6688C68.2805 16.6688 65.7805 20.2088 65.7605 24.1088C65.7405 28.2088 68.5405 31.3488 72.9605 31.3488C76.6805 31.3488 79.0805 29.2888 79.7805 26.0488H81.3205V23.9888ZM91.5607 25.8688C91.5607 23.2488 89.7607 21.4488 87.1007 21.4488C84.2607 21.4488 82.4207 23.3688 82.4207 26.3488C82.4207 29.3688 84.2407 31.2488 87.1807 31.2488C89.4207 31.2488 91.1807 30.0288 91.4607 28.2888H89.2607C88.9007 29.0088 88.2607 29.3488 87.1807 29.3488C85.6007 29.3488 84.6407 28.5488 84.5807 27.0688H91.5007C91.5407 26.5088 91.5607 26.2888 91.5607 25.8688ZM84.5807 25.4088C84.6007 24.0888 85.5207 23.1688 87.0607 23.1688C88.5607 23.1688 89.4007 23.9688 89.4207 25.4088H84.5807ZM97.7899 29.1688C96.9299 29.1688 96.4299 28.9688 96.4299 27.3488V23.5088H98.5699V21.6888H96.4299V18.8688H94.2499V21.6888H92.6699V23.5088H94.2499V27.8488C94.2499 30.9888 96.2099 31.1288 97.2699 31.1288C97.9099 31.1288 98.5499 31.0688 98.8899 31.0088V29.0888C98.6699 29.1288 98.1299 29.1688 97.7899 29.1688ZM110.194 31.3488C112.974 31.3488 114.834 29.7288 114.834 27.3288C114.834 25.4288 113.954 24.1888 112.194 23.4688L110.134 22.6288C108.494 21.9688 107.814 21.3288 107.814 20.3688C107.814 19.3088 108.574 18.6288 109.894 18.6288C111.454 18.6288 112.294 19.5088 112.294 21.0488H114.594C114.594 18.4088 112.754 16.6688 109.974 16.6688C107.334 16.6688 105.494 18.2288 105.494 20.5088C105.494 22.2888 106.414 23.5488 108.174 24.2288L110.454 25.1488C112.034 25.7888 112.534 26.3288 112.534 27.3888C112.534 28.6488 111.694 29.3488 110.174 29.3488C108.434 29.3488 107.394 28.2488 107.394 26.4288H105.094C105.094 29.5688 106.954 31.3488 110.194 31.3488ZM120.954 29.1688C120.094 29.1688 119.594 28.9688 119.594 27.3488V23.5088H121.734V21.6888H119.594V18.8688H117.414V21.6888H115.834V23.5088H117.414V27.8488C117.414 30.9888 119.374 31.1288 120.434 31.1288C121.074 31.1288 121.714 31.0688 122.054 31.0088V29.0888C121.834 29.1288 121.294 29.1688 120.954 29.1688ZM127.841 31.2488C128.981 31.2488 130.261 30.6888 130.841 29.7488V31.0088H133.001V21.6888H130.841V22.9488C130.261 22.0088 129.141 21.4488 127.901 21.4488C125.001 21.4488 123.261 23.6088 123.261 26.3488C123.261 29.0888 124.841 31.2488 127.841 31.2488ZM128.161 29.3088C126.461 29.3088 125.441 28.0488 125.441 26.3488C125.441 24.6488 126.461 23.3888 128.161 23.3888C130.021 23.3888 130.921 24.7488 130.921 26.3488C130.921 27.9488 130.021 29.3088 128.161 29.3088ZM135.796 31.0088H137.976V26.8888C137.976 24.7688 138.916 23.6088 140.456 23.6088C140.796 23.6088 140.976 23.6088 141.316 23.6488V21.6488C141.076 21.5888 140.796 21.5688 140.456 21.5688C139.436 21.5688 138.316 22.1688 137.976 23.4888V21.6888H135.796V31.0088ZM147.731 29.1688C146.871 29.1688 146.371 28.9688 146.371 27.3488V23.5088H148.511V21.6888H146.371V18.8688H144.191V21.6888H142.611V23.5088H144.191V27.8488C144.191 30.9888 146.151 31.1288 147.211 31.1288C147.851 31.1288 148.491 31.0688 148.831 31.0088V29.0888C148.611 29.1288 148.071 29.1688 147.731 29.1688ZM159.178 25.8688C159.178 23.2488 157.378 21.4488 154.718 21.4488C151.878 21.4488 150.038 23.3688 150.038 26.3488C150.038 29.3688 151.858 31.2488 154.798 31.2488C157.038 31.2488 158.798 30.0288 159.078 28.2888H156.878C156.518 29.0088 155.878 29.3488 154.798 29.3488C153.218 29.3488 152.258 28.5488 152.198 27.0688H159.118C159.158 26.5088 159.178 26.2888 159.178 25.8688ZM152.198 25.4088C152.218 24.0888 153.138 23.1688 154.678 23.1688C156.178 23.1688 157.018 23.9688 157.038 25.4088H152.198ZM168.36 17.0088V22.9488C167.78 22.0088 166.66 21.4488 165.42 21.4488C162.52 21.4488 160.78 23.6088 160.78 26.3488C160.78 29.0888 162.36 31.2488 165.36 31.2488C166.5 31.2488 167.78 30.6888 168.36 29.7488V31.0088H170.52V17.0088H168.36ZM165.68 29.3088C163.98 29.3088 162.96 28.0488 162.96 26.3488C162.96 24.6488 163.98 23.3888 165.68 23.3888C167.54 23.3888 168.44 24.7488 168.44 26.3488C168.44 27.9488 167.54 29.3088 165.68 29.3088Z" fill="white"/>
</svg>
