<svg width="2915" height="52" viewBox="0 0 2915 52" fill="none" xmlns="http://www.w3.org/2000/svg">
<path d="M31.2778 31.7044L37.7218 11.0764H43.1218L34.9858 36.2764H28.3258L21.6658 16.2244L14.8618 36.2764H8.20183L0.173828 11.0764H5.57383L11.9458 31.7044L18.9298 11.0764H24.3658L31.2778 31.7044ZM68.0094 24.6844V27.3484H47.9574C48.1014 29.3644 48.6534 30.7804 49.6134 31.5964C50.5974 32.4124 52.2054 32.8204 54.4374 32.8204H57.3894C61.3254 32.8204 63.2934 31.5124 63.2934 28.8964H68.0094C68.0094 31.7044 67.1334 33.7324 65.3814 34.9804C63.6294 36.2044 60.9654 36.8164 57.3894 36.8164H53.8974C50.0814 36.8164 47.3454 36.0364 45.6894 34.4764C44.0574 32.8924 43.2414 30.0724 43.2414 26.0164C43.2414 21.9604 44.0694 19.1404 45.7254 17.5564C47.3814 15.9724 50.1054 15.1804 53.8974 15.1804H57.3894C61.0134 15.1804 63.6894 15.8884 65.4174 17.3044C67.1454 18.7204 68.0094 21.1804 68.0094 24.6844ZM47.9574 24.6844H63.2934C63.2934 22.6684 62.7894 21.2524 61.7814 20.4364C60.7974 19.5964 59.1774 19.1764 56.9214 19.1764H54.4374C52.1814 19.1764 50.5734 19.5964 49.6134 20.4364C48.6534 21.2524 48.1014 22.6684 47.9574 24.6844ZM84.8363 15.1804H85.4843C88.8443 15.1804 91.3163 15.9844 92.9003 17.5924C94.5083 19.2004 95.3123 22.0084 95.3123 26.0164C95.3123 30.0244 94.5083 32.8324 92.9003 34.4404C91.3163 36.0484 88.8443 36.8524 85.4843 36.8524H84.8363C80.7323 36.8524 77.8883 35.5324 76.3043 32.8924V36.2764H71.4803V9.27636H76.3043V19.1404C77.8883 16.5004 80.7323 15.1804 84.8363 15.1804ZM82.7843 32.7484H84.5123C86.7443 32.7484 88.3163 32.2444 89.2283 31.2364C90.1643 30.2044 90.6323 28.4644 90.6323 26.0164C90.6323 23.5684 90.1643 21.8404 89.2283 20.8324C88.3163 19.8004 86.7443 19.2844 84.5123 19.2844H82.7843C80.5523 19.2844 78.9083 19.8124 77.8523 20.8684C76.8203 21.9004 76.3043 23.6164 76.3043 26.0164C76.3043 28.4164 76.8203 30.1444 77.8523 31.2004C78.9083 32.2324 80.5523 32.7484 82.7843 32.7484ZM107.87 24.1444H113.09C114.482 24.1444 115.646 24.1804 116.582 24.2524C117.542 24.3244 118.466 24.4804 119.354 24.7204C120.266 24.9604 120.986 25.2844 121.514 25.6924C122.042 26.1004 122.462 26.6644 122.774 27.3844C123.086 28.0804 123.242 28.9324 123.242 29.9404C123.242 32.1244 122.366 33.8164 120.614 35.0164C118.862 36.2164 116.306 36.8164 112.946 36.8164H108.626C105.122 36.8164 102.518 36.2644 100.814 35.1604C99.1335 34.0324 98.2935 32.1484 98.2935 29.5084H103.01C103.01 30.7324 103.418 31.6324 104.234 32.2084C105.05 32.7604 106.346 33.0364 108.122 33.0364H113.162C116.762 33.0364 118.562 32.0764 118.562 30.1564C118.562 29.2444 118.118 28.6204 117.23 28.2844C116.366 27.9244 115.07 27.7444 113.342 27.7444H108.338C105.05 27.7444 102.638 27.3244 101.102 26.4844C99.5655 25.6204 98.7975 24.0364 98.7975 21.7324C98.7975 17.2924 102.194 15.0724 108.986 15.0724H112.694C116.27 15.0724 118.862 15.6124 120.47 16.6924C122.078 17.7724 122.882 19.5964 122.882 22.1644H118.166C118.166 19.9324 116.51 18.8164 113.198 18.8164H108.554C105.218 18.8164 103.55 19.7884 103.55 21.7324C103.55 23.3404 104.99 24.1444 107.87 24.1444ZM129.413 13.1644H128.585C127.625 13.1644 126.929 12.9724 126.497 12.5884C126.089 12.1804 125.885 11.5084 125.885 10.5724C125.885 9.66037 126.089 9.01237 126.497 8.62837C126.929 8.24437 127.625 8.05237 128.585 8.05237H129.413C130.373 8.05237 131.069 8.24437 131.501 8.62837C131.933 9.01237 132.149 9.66037 132.149 10.5724C132.149 11.5084 131.933 12.1804 131.501 12.5884C131.069 12.9724 130.373 13.1644 129.413 13.1644ZM131.429 36.2764H126.605V15.7204H131.429V36.2764ZM150.698 28.7164H155.378C155.378 31.3324 154.574 33.3364 152.966 34.7284C151.382 36.1204 149.162 36.8164 146.306 36.8164H145.838C142.982 36.8164 140.786 36.1564 139.25 34.8364C137.714 33.5164 136.946 31.3324 136.946 28.2844V19.3204H134.066V15.7204H136.946V11.0764H141.734V15.7204H154.838V19.3204H141.734V28.2844C141.734 31.3084 143.198 32.8204 146.126 32.8204H146.378C147.722 32.8204 148.778 32.4724 149.546 31.7764C150.314 31.0804 150.698 30.0604 150.698 28.7164ZM182.724 24.6844V27.3484H162.672C162.816 29.3644 163.368 30.7804 164.328 31.5964C165.312 32.4124 166.92 32.8204 169.152 32.8204H172.104C176.04 32.8204 178.008 31.5124 178.008 28.8964H182.724C182.724 31.7044 181.848 33.7324 180.096 34.9804C178.344 36.2044 175.68 36.8164 172.104 36.8164H168.612C164.796 36.8164 162.06 36.0364 160.404 34.4764C158.772 32.8924 157.956 30.0724 157.956 26.0164C157.956 21.9604 158.784 19.1404 160.44 17.5564C162.096 15.9724 164.82 15.1804 168.612 15.1804H172.104C175.728 15.1804 178.404 15.8884 180.132 17.3044C181.86 18.7204 182.724 21.1804 182.724 24.6844ZM162.672 24.6844H178.008C178.008 22.6684 177.504 21.2524 176.496 20.4364C175.512 19.5964 173.892 19.1764 171.636 19.1764H169.152C166.896 19.1764 165.288 19.5964 164.328 20.4364C163.368 21.2524 162.816 22.6684 162.672 24.6844Z" fill="#121212"/>
<path d="M226.862 38.2924H223.478V8.73637H226.862V38.2924Z" fill="#121212"/>
<path d="M506.862 38.2924H503.478V8.73637H506.862V38.2924Z" fill="#121212"/>
<path d="M877.862 38.2924H874.478V8.73637H877.862V38.2924Z" fill="#121212"/>
<path d="M1791.86 38.2924H1788.48V8.73637H1791.86V38.2924Z" fill="#121212"/>
<path d="M1067.86 38.2924H1064.48V8.73637H1067.86V38.2924Z" fill="#121212"/>
<path d="M1485.86 38.2924H1482.48V8.73637H1485.86V38.2924Z" fill="#121212"/>
<path d="M1992.86 38.2924H1989.48V8.73637H1992.86V38.2924Z" fill="#121212"/>
<path d="M2304.86 38.2924H2301.48V8.73637H2304.86V38.2924Z" fill="#121212"/>
<path d="M2651.86 38.2924H2648.48V8.73637H2651.86V38.2924Z" fill="#121212"/>
<path d="M2912.69 38.2924H2909.3V8.73637H2912.69V38.2924Z" fill="#121212"/>
<path d="M289.978 23.6044C292.498 24.5164 293.758 26.2924 293.758 28.9324C293.758 31.5484 293.074 33.4324 291.706 34.5844C290.362 35.7124 288.19 36.2764 285.19 36.2764H266.722V11.0764H284.47C287.47 11.0764 289.642 11.6404 290.986 12.7684C292.354 13.8964 293.038 15.7804 293.038 18.4204C293.038 21.0124 292.018 22.7404 289.978 23.6044ZM283.354 15.2524H271.906V21.8764H283.174C284.902 21.8764 286.102 21.6724 286.774 21.2644C287.446 20.8564 287.782 20.0164 287.782 18.7444C287.782 17.4004 287.434 16.4884 286.738 16.0084C286.066 15.5044 284.938 15.2524 283.354 15.2524ZM271.906 32.0644H284.11C285.67 32.0644 286.786 31.8124 287.458 31.3084C288.154 30.7804 288.502 29.8684 288.502 28.5724C288.502 27.3484 288.142 26.5204 287.422 26.0884C286.726 25.6564 285.478 25.4404 283.678 25.4404H271.906V32.0644ZM308.821 15.3604H309.721C312.265 15.3604 314.293 16.1044 315.805 17.5924C317.317 19.0804 318.073 21.4444 318.073 24.6844H313.249C313.249 21.2044 311.581 19.4644 308.245 19.4644H307.489C305.377 19.4644 303.805 19.9924 302.773 21.0484C301.765 22.0804 301.261 23.7964 301.261 26.1964V36.2764H296.437V15.7204H300.757V20.2204C302.173 16.9804 304.861 15.3604 308.821 15.3604ZM330.424 15.1804H334.168C337.816 15.1804 340.408 15.9244 341.944 17.4124C343.504 18.9004 344.284 21.5284 344.284 25.2964V36.2764H339.496V32.4244C338.2 35.3524 335.392 36.8164 331.072 36.8164H329.92C323.296 36.8164 319.984 34.4764 319.984 29.7964C319.984 27.6844 320.74 26.2684 322.252 25.5484C323.764 24.8284 326.164 24.4684 329.452 24.4684H339.46C339.364 22.4524 338.896 21.0484 338.056 20.2564C337.24 19.4644 335.776 19.0684 333.664 19.0684H330.352C326.896 19.0684 325.168 20.2324 325.168 22.5604H320.488C320.488 20.0404 321.292 18.1804 322.9 16.9804C324.532 15.7804 327.04 15.1804 330.424 15.1804ZM329.884 33.1804H332.62C334.876 33.1804 336.556 32.7124 337.66 31.7764C338.764 30.8164 339.364 29.2204 339.46 26.9884H329.92C328.024 26.9884 326.68 27.1924 325.888 27.6004C325.096 27.9844 324.7 28.7164 324.7 29.7964C324.7 32.0524 326.428 33.1804 329.884 33.1804ZM361.797 15.2164H362.445C365.853 15.2164 368.301 15.9724 369.789 17.4844C371.277 18.9964 372.021 21.6484 372.021 25.4404V36.3124H367.233V25.4404C367.233 23.1604 366.825 21.5644 366.009 20.6524C365.217 19.7404 363.693 19.2844 361.437 19.2844H359.637C357.357 19.2844 355.665 19.8124 354.561 20.8684C353.481 21.9004 352.941 23.6284 352.941 26.0524V36.2764H348.117V15.7204H352.437V20.2204C353.901 16.8844 357.021 15.2164 361.797 15.2164ZM394.538 19.1404V9.27636H399.362V36.2764H394.538V32.8924C392.954 35.5324 390.11 36.8524 386.006 36.8524H385.358C381.998 36.8524 379.514 36.0484 377.906 34.4404C376.322 32.8324 375.53 30.0244 375.53 26.0164C375.53 22.0084 376.322 19.2004 377.906 17.5924C379.514 15.9844 381.998 15.1804 385.358 15.1804H386.006C390.11 15.1804 392.954 16.5004 394.538 19.1404ZM386.33 32.7484H388.058C390.29 32.7484 391.922 32.2324 392.954 31.2004C394.01 30.1444 394.538 28.4164 394.538 26.0164C394.538 23.6164 394.01 21.9004 392.954 20.8684C391.922 19.8124 390.29 19.2844 388.058 19.2844H386.33C384.098 19.2844 382.514 19.8004 381.578 20.8324C380.666 21.8404 380.21 23.5684 380.21 26.0164C380.21 28.4644 380.666 30.2044 381.578 31.2364C382.514 32.2444 384.098 32.7484 386.33 32.7484ZM405.98 13.1644H405.152C404.192 13.1644 403.496 12.9724 403.064 12.5884C402.656 12.1804 402.452 11.5084 402.452 10.5724C402.452 9.66037 402.656 9.01237 403.064 8.62837C403.496 8.24437 404.192 8.05237 405.152 8.05237H405.98C406.94 8.05237 407.636 8.24437 408.068 8.62837C408.5 9.01237 408.716 9.66037 408.716 10.5724C408.716 11.5084 408.5 12.1804 408.068 12.5884C407.636 12.9724 406.94 13.1644 405.98 13.1644ZM407.996 36.2764H403.172V15.7204H407.996V36.2764ZM425.5 15.2164H426.148C429.556 15.2164 432.004 15.9724 433.492 17.4844C434.98 18.9964 435.724 21.6484 435.724 25.4404V36.3124H430.936V25.4404C430.936 23.1604 430.528 21.5644 429.712 20.6524C428.92 19.7404 427.396 19.2844 425.14 19.2844H423.34C421.06 19.2844 419.368 19.8124 418.264 20.8684C417.184 21.9004 416.644 23.6284 416.644 26.0524V36.2764H411.82V15.7204H416.14V20.2204C417.604 16.8844 420.724 15.2164 425.5 15.2164ZM458.242 18.9964V15.7204H463.066V34.2604C463.066 37.7644 462.334 40.1644 460.87 41.4604C459.406 42.7804 456.934 43.4404 453.454 43.4404H440.674V39.3364H453.454C455.326 39.3364 456.586 38.9764 457.234 38.2564C457.906 37.5604 458.242 36.2284 458.242 34.2604V32.1724C456.634 34.7164 453.778 35.9884 449.674 35.9884H449.026C445.714 35.9884 443.254 35.2084 441.646 33.6484C440.038 32.0884 439.234 29.4004 439.234 25.5844C439.234 21.7684 440.038 19.0804 441.646 17.5204C443.254 15.9604 445.714 15.1804 449.026 15.1804H449.674C453.778 15.1804 456.634 16.4524 458.242 18.9964ZM450.034 31.8844H451.726C453.982 31.8844 455.626 31.3924 456.658 30.4084C457.714 29.4004 458.242 27.7924 458.242 25.5844C458.242 23.3764 457.714 21.7804 456.658 20.7964C455.626 19.7884 453.982 19.2844 451.726 19.2844H450.034C447.85 19.2844 446.278 19.7764 445.318 20.7604C444.382 21.7444 443.914 23.3524 443.914 25.5844C443.914 27.8164 444.382 29.4244 445.318 30.4084C446.278 31.3924 447.85 31.8844 450.034 31.8844Z" fill="#121212"/>
<path d="M546.722 11.0764H551.906V31.7044H566.414V36.2764H546.722V11.0764ZM578.748 15.1804H582.492C586.14 15.1804 588.732 15.9244 590.268 17.4124C591.828 18.9004 592.608 21.5284 592.608 25.2964V36.2764H587.82V32.4244C586.524 35.3524 583.716 36.8164 579.396 36.8164H578.244C571.62 36.8164 568.308 34.4764 568.308 29.7964C568.308 27.6844 569.064 26.2684 570.576 25.5484C572.088 24.8284 574.488 24.4684 577.776 24.4684H587.784C587.688 22.4524 587.22 21.0484 586.38 20.2564C585.564 19.4644 584.1 19.0684 581.988 19.0684H578.676C575.22 19.0684 573.492 20.2324 573.492 22.5604H568.812C568.812 20.0404 569.616 18.1804 571.224 16.9804C572.856 15.7804 575.364 15.1804 578.748 15.1804ZM578.208 33.1804H580.944C583.2 33.1804 584.88 32.7124 585.984 31.7764C587.088 30.8164 587.688 29.2204 587.784 26.9884H578.244C576.348 26.9884 575.004 27.1924 574.212 27.6004C573.42 27.9844 573.024 28.7164 573.024 29.7964C573.024 32.0524 574.752 33.1804 578.208 33.1804ZM610.121 15.2164H610.769C614.177 15.2164 616.625 15.9724 618.113 17.4844C619.601 18.9964 620.345 21.6484 620.345 25.4404V36.3124H615.557V25.4404C615.557 23.1604 615.149 21.5644 614.333 20.6524C613.541 19.7404 612.017 19.2844 609.761 19.2844H607.961C605.681 19.2844 603.989 19.8124 602.885 20.8684C601.805 21.9004 601.265 23.6284 601.265 26.0524V36.2764H596.441V15.7204H600.761V20.2204C602.225 16.8844 605.345 15.2164 610.121 15.2164ZM642.863 19.1404V9.27636H647.687V36.2764H642.863V32.8924C641.279 35.5324 638.435 36.8524 634.331 36.8524H633.683C630.323 36.8524 627.839 36.0484 626.231 34.4404C624.647 32.8324 623.855 30.0244 623.855 26.0164C623.855 22.0084 624.647 19.2004 626.231 17.5924C627.839 15.9844 630.323 15.1804 633.683 15.1804H634.331C638.435 15.1804 641.279 16.5004 642.863 19.1404ZM634.655 32.7484H636.383C638.615 32.7484 640.247 32.2324 641.279 31.2004C642.335 30.1444 642.863 28.4164 642.863 26.0164C642.863 23.6164 642.335 21.9004 641.279 20.8684C640.247 19.8124 638.615 19.2844 636.383 19.2844H634.655C632.423 19.2844 630.839 19.8004 629.903 20.8324C628.991 21.8404 628.535 23.5684 628.535 26.0164C628.535 28.4644 628.991 30.2044 629.903 31.2364C630.839 32.2444 632.423 32.7484 634.655 32.7484ZM654.304 13.1644H653.476C652.516 13.1644 651.82 12.9724 651.388 12.5884C650.98 12.1804 650.776 11.5084 650.776 10.5724C650.776 9.66037 650.98 9.01237 651.388 8.62837C651.82 8.24437 652.516 8.05237 653.476 8.05237H654.304C655.264 8.05237 655.96 8.24437 656.392 8.62837C656.824 9.01237 657.04 9.66037 657.04 10.5724C657.04 11.5084 656.824 12.1804 656.392 12.5884C655.96 12.9724 655.264 13.1644 654.304 13.1644ZM656.32 36.2764H651.496V15.7204H656.32V36.2764ZM673.824 15.2164H674.472C677.88 15.2164 680.328 15.9724 681.816 17.4844C683.304 18.9964 684.048 21.6484 684.048 25.4404V36.3124H679.26V25.4404C679.26 23.1604 678.852 21.5644 678.036 20.6524C677.244 19.7404 675.72 19.2844 673.464 19.2844H671.664C669.384 19.2844 667.692 19.8124 666.588 20.8684C665.508 21.9004 664.968 23.6284 664.968 26.0524V36.2764H660.144V15.7204H664.464V20.2204C665.928 16.8844 669.048 15.2164 673.824 15.2164ZM706.566 18.9964V15.7204H711.39V34.2604C711.39 37.7644 710.658 40.1644 709.194 41.4604C707.73 42.7804 705.258 43.4404 701.778 43.4404H688.998V39.3364H701.778C703.65 39.3364 704.91 38.9764 705.558 38.2564C706.23 37.5604 706.566 36.2284 706.566 34.2604V32.1724C704.958 34.7164 702.102 35.9884 697.998 35.9884H697.35C694.038 35.9884 691.578 35.2084 689.97 33.6484C688.362 32.0884 687.558 29.4004 687.558 25.5844C687.558 21.7684 688.362 19.0804 689.97 17.5204C691.578 15.9604 694.038 15.1804 697.35 15.1804H697.998C702.102 15.1804 704.958 16.4524 706.566 18.9964ZM698.358 31.8844H700.05C702.306 31.8844 703.95 31.3924 704.982 30.4084C706.038 29.4004 706.566 27.7924 706.566 25.5844C706.566 23.3764 706.038 21.7804 704.982 20.7964C703.95 19.7884 702.306 19.2844 700.05 19.2844H698.358C696.174 19.2844 694.602 19.7764 693.642 20.7604C692.706 21.7444 692.238 23.3524 692.238 25.5844C692.238 27.8164 692.706 29.4244 693.642 30.4084C694.602 31.3924 696.174 31.8844 698.358 31.8844ZM743.956 11.0764C747.004 11.0764 749.188 11.7124 750.508 12.9844C751.852 14.2564 752.524 16.5244 752.524 19.7884C752.524 23.0524 751.864 25.3204 750.544 26.5924C749.224 27.8404 747.028 28.4644 743.956 28.4644H730.816V36.2764H725.632V11.0764H743.956ZM730.816 24.0364H742.804C744.436 24.0364 745.6 23.7364 746.296 23.1364C746.992 22.5124 747.34 21.3964 747.34 19.7884C747.34 18.2044 746.992 17.1004 746.296 16.4764C745.6 15.8284 744.436 15.5044 742.804 15.5044H730.816V24.0364ZM765.111 15.1804H768.855C772.503 15.1804 775.095 15.9244 776.631 17.4124C778.191 18.9004 778.971 21.5284 778.971 25.2964V36.2764H774.183V32.4244C772.887 35.3524 770.079 36.8164 765.759 36.8164H764.607C757.983 36.8164 754.671 34.4764 754.671 29.7964C754.671 27.6844 755.427 26.2684 756.939 25.5484C758.451 24.8284 760.851 24.4684 764.139 24.4684H774.147C774.051 22.4524 773.583 21.0484 772.743 20.2564C771.927 19.4644 770.463 19.0684 768.351 19.0684H765.039C761.583 19.0684 759.855 20.2324 759.855 22.5604H755.175C755.175 20.0404 755.979 18.1804 757.587 16.9804C759.219 15.7804 761.727 15.1804 765.111 15.1804ZM764.571 33.1804H767.307C769.563 33.1804 771.243 32.7124 772.347 31.7764C773.451 30.8164 774.051 29.2204 774.147 26.9884H764.607C762.711 26.9884 761.367 27.1924 760.575 27.6004C759.783 27.9844 759.387 28.7164 759.387 29.7964C759.387 32.0524 761.115 33.1804 764.571 33.1804ZM801.452 18.9964V15.7204H806.276V34.2604C806.276 37.7644 805.544 40.1644 804.08 41.4604C802.616 42.7804 800.144 43.4404 796.664 43.4404H783.884V39.3364H796.664C798.536 39.3364 799.796 38.9764 800.444 38.2564C801.116 37.5604 801.452 36.2284 801.452 34.2604V32.1724C799.844 34.7164 796.988 35.9884 792.884 35.9884H792.236C788.924 35.9884 786.464 35.2084 784.856 33.6484C783.248 32.0884 782.444 29.4004 782.444 25.5844C782.444 21.7684 783.248 19.0804 784.856 17.5204C786.464 15.9604 788.924 15.1804 792.236 15.1804H792.884C796.988 15.1804 799.844 16.4524 801.452 18.9964ZM793.244 31.8844H794.936C797.192 31.8844 798.836 31.3924 799.868 30.4084C800.924 29.4004 801.452 27.7924 801.452 25.5844C801.452 23.3764 800.924 21.7804 799.868 20.7964C798.836 19.7884 797.192 19.2844 794.936 19.2844H793.244C791.06 19.2844 789.488 19.7764 788.528 20.7604C787.592 21.7444 787.124 23.3524 787.124 25.5844C787.124 27.8164 787.592 29.4244 788.528 30.4084C789.488 31.3924 791.06 31.8844 793.244 31.8844ZM834.494 24.6844V27.3484H814.442C814.586 29.3644 815.138 30.7804 816.098 31.5964C817.082 32.4124 818.69 32.8204 820.922 32.8204H823.874C827.81 32.8204 829.778 31.5124 829.778 28.8964H834.494C834.494 31.7044 833.618 33.7324 831.866 34.9804C830.114 36.2044 827.45 36.8164 823.874 36.8164H820.382C816.566 36.8164 813.83 36.0364 812.174 34.4764C810.542 32.8924 809.726 30.0724 809.726 26.0164C809.726 21.9604 810.554 19.1404 812.21 17.5564C813.866 15.9724 816.59 15.1804 820.382 15.1804H823.874C827.498 15.1804 830.174 15.8884 831.902 17.3044C833.63 18.7204 834.494 21.1804 834.494 24.6844ZM814.442 24.6844H829.778C829.778 22.6684 829.274 21.2524 828.266 20.4364C827.282 19.5964 825.662 19.1764 823.406 19.1764H820.922C818.666 19.1764 817.058 19.5964 816.098 20.4364C815.138 21.2524 814.586 22.6684 814.442 24.6844Z" fill="#121212"/>
<path d="M933.382 36.8164H930.142C925.774 36.8164 922.606 35.8444 920.638 33.9004C918.694 31.9564 917.722 28.5484 917.722 23.6764V11.0764H922.906V23.6764C922.906 26.8924 923.446 29.1244 924.526 30.3724C925.606 31.6204 927.538 32.2444 930.322 32.2444H933.238C936.022 32.2444 937.954 31.6204 939.034 30.3724C940.114 29.1244 940.654 26.8924 940.654 23.6764V11.0764H945.802V23.6764C945.802 28.5484 944.818 31.9564 942.85 33.9004C940.906 35.8444 937.75 36.8164 933.382 36.8164ZM954.125 36.2764H948.941V11.0764H954.125V36.2764ZM960.729 42.7564H956.877L961.701 7.47637H965.517L960.729 42.7564ZM983.937 36.8164H980.697C976.329 36.8164 973.161 35.8444 971.193 33.9004C969.249 31.9564 968.277 28.5484 968.277 23.6764V11.0764H973.461V23.6764C973.461 26.8924 974.001 29.1244 975.081 30.3724C976.161 31.6204 978.093 32.2444 980.877 32.2444H983.793C986.577 32.2444 988.509 31.6204 989.589 30.3724C990.669 29.1244 991.209 26.8924 991.209 23.6764V11.0764H996.357V23.6764C996.357 28.5484 995.373 31.9564 993.405 33.9004C991.461 35.8444 988.305 36.8164 983.937 36.8164ZM1015.45 22.9564L1025.78 36.2764H1019.77L1011.78 26.0524L1003.68 36.2764H997.668L1008.22 23.1004L998.244 11.0764H1004.33L1011.89 20.0404L1019.12 11.0764H1025.21L1015.45 22.9564Z" fill="#121212"/>
<path d="M1121.65 23.1364H1137.71V36.2764H1134L1133.53 30.9844C1132.84 33.0964 1131.64 34.5964 1129.93 35.4844C1128.23 36.3724 1125.84 36.8164 1122.77 36.8164H1119.85C1115.32 36.8164 1112.05 35.8564 1110.06 33.9364C1108.07 31.9924 1107.07 28.5724 1107.07 23.6764C1107.07 18.7804 1108.07 15.3724 1110.06 13.4524C1112.05 11.5084 1115.32 10.5364 1119.85 10.5364H1125.18C1129.38 10.5364 1132.51 11.3164 1134.58 12.8764C1136.64 14.4364 1137.67 16.9084 1137.67 20.2924H1132.71C1132.73 18.5884 1132.13 17.3044 1130.91 16.4404C1129.71 15.5524 1127.8 15.1084 1125.18 15.1084H1119.85C1116.88 15.1084 1114.84 15.7324 1113.73 16.9804C1112.63 18.2044 1112.08 20.4364 1112.08 23.6764C1112.08 26.9164 1112.63 29.1604 1113.73 30.4084C1114.84 31.6324 1116.88 32.2444 1119.85 32.2444H1125.18C1127.61 32.2444 1129.39 31.8244 1130.55 30.9844C1131.7 30.1204 1132.39 28.6564 1132.63 26.5924H1121.65V23.1364ZM1152.92 15.3604H1153.82C1156.36 15.3604 1158.39 16.1044 1159.9 17.5924C1161.41 19.0804 1162.17 21.4444 1162.17 24.6844H1157.34C1157.34 21.2044 1155.68 19.4644 1152.34 19.4644H1151.58C1149.47 19.4644 1147.9 19.9924 1146.87 21.0484C1145.86 22.0804 1145.36 23.7964 1145.36 26.1964V36.2764H1140.53V15.7204H1144.85V20.2204C1146.27 16.9804 1148.96 15.3604 1152.92 15.3604ZM1174.52 15.1804H1178.26C1181.91 15.1804 1184.5 15.9244 1186.04 17.4124C1187.6 18.9004 1188.38 21.5284 1188.38 25.2964V36.2764H1183.59V32.4244C1182.29 35.3524 1179.49 36.8164 1175.17 36.8164H1174.01C1167.39 36.8164 1164.08 34.4764 1164.08 29.7964C1164.08 27.6844 1164.83 26.2684 1166.35 25.5484C1167.86 24.8284 1170.26 24.4684 1173.55 24.4684H1183.55C1183.46 22.4524 1182.99 21.0484 1182.15 20.2564C1181.33 19.4644 1179.87 19.0684 1177.76 19.0684H1174.45C1170.99 19.0684 1169.26 20.2324 1169.26 22.5604H1164.58C1164.58 20.0404 1165.39 18.1804 1166.99 16.9804C1168.63 15.7804 1171.13 15.1804 1174.52 15.1804ZM1173.98 33.1804H1176.71C1178.97 33.1804 1180.65 32.7124 1181.75 31.7764C1182.86 30.8164 1183.46 29.2204 1183.55 26.9884H1174.01C1172.12 26.9884 1170.77 27.1924 1169.98 27.6004C1169.19 27.9844 1168.79 28.7164 1168.79 29.7964C1168.79 32.0524 1170.52 33.1804 1173.98 33.1804ZM1205.57 15.1804H1206.21C1209.57 15.1804 1212.05 15.9844 1213.63 17.5924C1215.24 19.2004 1216.04 22.0084 1216.04 26.0164C1216.04 30.0244 1215.24 32.8324 1213.63 34.4404C1212.05 36.0484 1209.57 36.8524 1206.21 36.8524H1205.57C1201.46 36.8524 1198.62 35.5324 1197.03 32.8924V42.7564H1192.21V15.7564H1197.03V19.1404C1198.62 16.5004 1201.46 15.1804 1205.57 15.1804ZM1203.51 32.7484H1205.24C1207.47 32.7484 1209.05 32.2444 1209.96 31.2364C1210.89 30.2044 1211.36 28.4644 1211.36 26.0164C1211.36 23.5684 1210.89 21.8404 1209.96 20.8324C1209.05 19.8004 1207.47 19.2844 1205.24 19.2844H1203.51C1201.28 19.2844 1199.64 19.8124 1198.58 20.8684C1197.55 21.9004 1197.03 23.6164 1197.03 26.0164C1197.03 28.4164 1197.55 30.1444 1198.58 31.2004C1199.64 32.2324 1201.28 32.7484 1203.51 32.7484ZM1233.17 15.1804H1233.82C1237.23 15.1804 1239.68 15.9364 1241.16 17.4484C1242.65 18.9604 1243.4 21.6124 1243.4 25.4044V36.2764H1238.61V25.4044C1238.61 23.1484 1238.2 21.5644 1237.38 20.6524C1236.59 19.7404 1235.07 19.2844 1232.81 19.2844H1231.01C1228.73 19.2844 1227.04 19.8004 1225.94 20.8324C1224.86 21.8644 1224.32 23.5924 1224.32 26.0164V36.2764H1219.49V9.27636H1224.32V19.2124C1225.92 16.5244 1228.88 15.1804 1233.17 15.1804ZM1250.07 13.1644H1249.25C1248.29 13.1644 1247.59 12.9724 1247.16 12.5884C1246.75 12.1804 1246.55 11.5084 1246.55 10.5724C1246.55 9.66037 1246.75 9.01237 1247.16 8.62837C1247.59 8.24437 1248.29 8.05237 1249.25 8.05237H1250.07C1251.03 8.05237 1251.73 8.24437 1252.16 8.62837C1252.59 9.01237 1252.81 9.66037 1252.81 10.5724C1252.81 11.5084 1252.59 12.1804 1252.16 12.5884C1251.73 12.9724 1251.03 13.1644 1250.07 13.1644ZM1252.09 36.2764H1247.27V15.7204H1252.09V36.2764ZM1269.7 36.8164H1266.21C1262.39 36.8164 1259.66 36.0364 1258 34.4764C1256.37 32.8924 1255.55 30.0724 1255.55 26.0164C1255.55 21.9604 1256.38 19.1404 1258.04 17.5564C1259.69 15.9724 1262.42 15.1804 1266.21 15.1804H1269.7C1273.28 15.1804 1275.94 15.8284 1277.69 17.1244C1279.45 18.4204 1280.32 20.5924 1280.32 23.6404H1275.61C1275.61 22.1764 1275.09 21.0844 1274.06 20.3644C1273.05 19.6444 1271.44 19.2844 1269.23 19.2844H1266.75C1264.3 19.2844 1262.6 19.7884 1261.64 20.7964C1260.7 21.7804 1260.23 23.5204 1260.23 26.0164C1260.23 28.4884 1260.7 30.2164 1261.64 31.2004C1262.57 32.1844 1264.28 32.6764 1266.75 32.6764H1269.23C1271.47 32.6764 1273.09 32.3284 1274.09 31.6324C1275.1 30.9124 1275.61 29.8084 1275.61 28.3204H1280.32C1280.32 31.3924 1279.45 33.5764 1277.69 34.8724C1275.97 36.1684 1273.3 36.8164 1269.7 36.8164ZM1310.39 11.0764C1314.93 11.0764 1318.19 12.0244 1320.18 13.9204C1322.17 15.7924 1323.17 19.0444 1323.17 23.6764C1323.17 28.3084 1322.17 31.5724 1320.18 33.4684C1318.19 35.3404 1314.93 36.2764 1310.39 36.2764H1294.23V11.0764H1310.39ZM1299.41 31.7044H1310.14C1313.07 31.7044 1315.09 31.1164 1316.22 29.9404C1317.35 28.7644 1317.91 26.6764 1317.91 23.6764C1317.91 20.6764 1317.35 18.5884 1316.22 17.4124C1315.09 16.2364 1313.07 15.6484 1310.14 15.6484H1299.41V31.7044ZM1350.39 24.6844V27.3484H1330.34C1330.48 29.3644 1331.03 30.7804 1331.99 31.5964C1332.98 32.4124 1334.58 32.8204 1336.82 32.8204H1339.77C1343.7 32.8204 1345.67 31.5124 1345.67 28.8964H1350.39C1350.39 31.7044 1349.51 33.7324 1347.76 34.9804C1346.01 36.2044 1343.34 36.8164 1339.77 36.8164H1336.28C1332.46 36.8164 1329.72 36.0364 1328.07 34.4764C1326.44 32.8924 1325.62 30.0724 1325.62 26.0164C1325.62 21.9604 1326.45 19.1404 1328.1 17.5564C1329.76 15.9724 1332.48 15.1804 1336.28 15.1804H1339.77C1343.39 15.1804 1346.07 15.8884 1347.8 17.3044C1349.52 18.7204 1350.39 21.1804 1350.39 24.6844ZM1330.34 24.6844H1345.67C1345.67 22.6684 1345.17 21.2524 1344.16 20.4364C1343.18 19.5964 1341.56 19.1764 1339.3 19.1764H1336.82C1334.56 19.1764 1332.95 19.5964 1331.99 20.4364C1331.03 21.2524 1330.48 22.6684 1330.34 24.6844ZM1362.97 24.1444H1368.19C1369.58 24.1444 1370.74 24.1804 1371.68 24.2524C1372.64 24.3244 1373.56 24.4804 1374.45 24.7204C1375.36 24.9604 1376.08 25.2844 1376.61 25.6924C1377.14 26.1004 1377.56 26.6644 1377.87 27.3844C1378.18 28.0804 1378.34 28.9324 1378.34 29.9404C1378.34 32.1244 1377.46 33.8164 1375.71 35.0164C1373.96 36.2164 1371.4 36.8164 1368.04 36.8164H1363.72C1360.22 36.8164 1357.62 36.2644 1355.91 35.1604C1354.23 34.0324 1353.39 32.1484 1353.39 29.5084H1358.11C1358.11 30.7324 1358.52 31.6324 1359.33 32.2084C1360.15 32.7604 1361.44 33.0364 1363.22 33.0364H1368.26C1371.86 33.0364 1373.66 32.0764 1373.66 30.1564C1373.66 29.2444 1373.22 28.6204 1372.33 28.2844C1371.46 27.9244 1370.17 27.7444 1368.44 27.7444H1363.44C1360.15 27.7444 1357.74 27.3244 1356.2 26.4844C1354.66 25.6204 1353.9 24.0364 1353.9 21.7324C1353.9 17.2924 1357.29 15.0724 1364.08 15.0724H1367.79C1371.37 15.0724 1373.96 15.6124 1375.57 16.6924C1377.18 17.7724 1377.98 19.5964 1377.98 22.1644H1373.26C1373.26 19.9324 1371.61 18.8164 1368.3 18.8164H1363.65C1360.32 18.8164 1358.65 19.7884 1358.65 21.7324C1358.65 23.3404 1360.09 24.1444 1362.97 24.1444ZM1384.51 13.1644H1383.68C1382.72 13.1644 1382.03 12.9724 1381.59 12.5884C1381.19 12.1804 1380.98 11.5084 1380.98 10.5724C1380.98 9.66037 1381.19 9.01237 1381.59 8.62837C1382.03 8.24437 1382.72 8.05237 1383.68 8.05237H1384.51C1385.47 8.05237 1386.17 8.24437 1386.6 8.62837C1387.03 9.01237 1387.25 9.66037 1387.25 10.5724C1387.25 11.5084 1387.03 12.1804 1386.6 12.5884C1386.17 12.9724 1385.47 13.1644 1384.51 13.1644ZM1386.53 36.2764H1381.7V15.7204H1386.53V36.2764ZM1409 18.9964V15.7204H1413.82V34.2604C1413.82 37.7644 1413.09 40.1644 1411.63 41.4604C1410.16 42.7804 1407.69 43.4404 1404.21 43.4404H1391.43V39.3364H1404.21C1406.08 39.3364 1407.34 38.9764 1407.99 38.2564C1408.66 37.5604 1409 36.2284 1409 34.2604V32.1724C1407.39 34.7164 1404.54 35.9884 1400.43 35.9884H1399.78C1396.47 35.9884 1394.01 35.2084 1392.4 33.6484C1390.8 32.0884 1389.99 29.4004 1389.99 25.5844C1389.99 21.7684 1390.8 19.0804 1392.4 17.5204C1394.01 15.9604 1396.47 15.1804 1399.78 15.1804H1400.43C1404.54 15.1804 1407.39 16.4524 1409 18.9964ZM1400.79 31.8844H1402.48C1404.74 31.8844 1406.38 31.3924 1407.42 30.4084C1408.47 29.4004 1409 27.7924 1409 25.5844C1409 23.3764 1408.47 21.7804 1407.42 20.7964C1406.38 19.7884 1404.74 19.2844 1402.48 19.2844H1400.79C1398.61 19.2844 1397.04 19.7764 1396.08 20.7604C1395.14 21.7444 1394.67 23.3524 1394.67 25.5844C1394.67 27.8164 1395.14 29.4244 1396.08 30.4084C1397.04 31.3924 1398.61 31.8844 1400.79 31.8844ZM1431.31 15.2164H1431.96C1435.37 15.2164 1437.82 15.9724 1439.3 17.4844C1440.79 18.9964 1441.54 21.6484 1441.54 25.4404V36.3124H1436.75V25.4404C1436.75 23.1604 1436.34 21.5644 1435.52 20.6524C1434.73 19.7404 1433.21 19.2844 1430.95 19.2844H1429.15C1426.87 19.2844 1425.18 19.8124 1424.08 20.8684C1423 21.9004 1422.46 23.6284 1422.46 26.0524V36.2764H1417.63V15.7204H1421.95V20.2204C1423.42 16.8844 1426.54 15.2164 1431.31 15.2164Z" fill="#121212"/>
<path d="M1554.81 36.2764H1549.37L1547.54 31.9924H1530.76L1528.85 36.2764H1523.45L1534.87 11.0764H1543.76L1554.81 36.2764ZM1538.32 15.0724L1532.53 28.0324H1545.85L1540.3 15.0724H1538.32ZM1569.68 15.2164H1570.33C1573.74 15.2164 1576.18 15.9724 1577.67 17.4844C1579.16 18.9964 1579.9 21.6484 1579.9 25.4404V36.3124H1575.12V25.4404C1575.12 23.1604 1574.71 21.5644 1573.89 20.6524C1573.1 19.7404 1571.58 19.2844 1569.32 19.2844H1567.52C1565.24 19.2844 1563.55 19.8124 1562.44 20.8684C1561.36 21.9004 1560.82 23.6284 1560.82 26.0524V36.2764H1556V15.7204H1560.32V20.2204C1561.78 16.8844 1564.9 15.2164 1569.68 15.2164ZM1586.58 13.1644H1585.75C1584.79 13.1644 1584.1 12.9724 1583.67 12.5884C1583.26 12.1804 1583.05 11.5084 1583.05 10.5724C1583.05 9.66037 1583.26 9.01237 1583.67 8.62837C1584.1 8.24437 1584.79 8.05237 1585.75 8.05237H1586.58C1587.54 8.05237 1588.24 8.24437 1588.67 8.62837C1589.1 9.01237 1589.32 9.66037 1589.32 10.5724C1589.32 11.5084 1589.1 12.1804 1588.67 12.5884C1588.24 12.9724 1587.54 13.1644 1586.58 13.1644ZM1588.6 36.2764H1583.77V15.7204H1588.6V36.2764ZM1622.3 15.1804H1622.95C1625.93 15.1804 1628.11 15.9484 1629.5 17.4844C1630.89 19.0204 1631.59 21.6604 1631.59 25.4044V36.2764H1626.8V25.4044C1626.8 23.1964 1626.42 21.6244 1625.65 20.6884C1624.88 19.7524 1623.57 19.2844 1621.73 19.2844H1620.65C1616.49 19.2844 1614.42 21.5284 1614.42 26.0164V36.2764H1609.63V25.4044C1609.63 23.1964 1609.23 21.6244 1608.44 20.6884C1607.67 19.7524 1606.38 19.2844 1604.55 19.2844H1603.47C1599.32 19.2844 1597.25 21.5284 1597.25 26.0164V36.2764H1592.42V15.7204H1596.74V20.1124C1598.18 16.8244 1600.98 15.1804 1605.13 15.1804H1605.78C1607.87 15.1804 1609.52 15.6244 1610.75 16.5124C1611.99 17.4004 1612.85 18.8764 1613.3 20.9404C1614.02 18.9244 1615.17 17.4604 1616.76 16.5484C1618.37 15.6364 1620.21 15.1804 1622.3 15.1804ZM1645.53 15.1804H1649.28C1652.92 15.1804 1655.52 15.9244 1657.05 17.4124C1658.61 18.9004 1659.39 21.5284 1659.39 25.2964V36.2764H1654.6V32.4244C1653.31 35.3524 1650.5 36.8164 1646.18 36.8164H1645.03C1638.4 36.8164 1635.09 34.4764 1635.09 29.7964C1635.09 27.6844 1635.85 26.2684 1637.36 25.5484C1638.87 24.8284 1641.27 24.4684 1644.56 24.4684H1654.57C1654.47 22.4524 1654 21.0484 1653.16 20.2564C1652.35 19.4644 1650.88 19.0684 1648.77 19.0684H1645.46C1642 19.0684 1640.28 20.2324 1640.28 22.5604H1635.6C1635.6 20.0404 1636.4 18.1804 1638.01 16.9804C1639.64 15.7804 1642.15 15.1804 1645.53 15.1804ZM1644.99 33.1804H1647.73C1649.98 33.1804 1651.66 32.7124 1652.77 31.7764C1653.87 30.8164 1654.47 29.2204 1654.57 26.9884H1645.03C1643.13 26.9884 1641.79 27.1924 1641 27.6004C1640.2 27.9844 1639.81 28.7164 1639.81 29.7964C1639.81 32.0524 1641.54 33.1804 1644.99 33.1804ZM1678.67 28.7164H1683.35C1683.35 31.3324 1682.55 33.3364 1680.94 34.7284C1679.35 36.1204 1677.13 36.8164 1674.28 36.8164H1673.81C1670.95 36.8164 1668.76 36.1564 1667.22 34.8364C1665.69 33.5164 1664.92 31.3324 1664.92 28.2844V19.3204H1662.04V15.7204H1664.92V11.0764H1669.71V15.7204H1682.81V19.3204H1669.71V28.2844C1669.71 31.3084 1671.17 32.8204 1674.1 32.8204H1674.35C1675.69 32.8204 1676.75 32.4724 1677.52 31.7764C1678.29 31.0804 1678.67 30.0604 1678.67 28.7164ZM1689.76 13.1644H1688.94C1687.98 13.1644 1687.28 12.9724 1686.85 12.5884C1686.44 12.1804 1686.24 11.5084 1686.24 10.5724C1686.24 9.66037 1686.44 9.01237 1686.85 8.62837C1687.28 8.24437 1687.98 8.05237 1688.94 8.05237H1689.76C1690.72 8.05237 1691.42 8.24437 1691.85 8.62837C1692.28 9.01237 1692.5 9.66037 1692.5 10.5724C1692.5 11.5084 1692.28 12.1804 1691.85 12.5884C1691.42 12.9724 1690.72 13.1644 1689.76 13.1644ZM1691.78 36.2764H1686.96V15.7204H1691.78V36.2764ZM1709.39 36.8164H1705.9C1702.09 36.8164 1699.35 36.0364 1697.69 34.4764C1696.06 32.8924 1695.25 30.0724 1695.25 26.0164C1695.25 21.9604 1696.07 19.1404 1697.73 17.5564C1699.39 15.9724 1702.11 15.1804 1705.9 15.1804H1709.39C1713.19 15.1804 1715.91 15.9724 1717.57 17.5564C1719.22 19.1404 1720.05 21.9604 1720.05 26.0164C1720.05 30.0724 1719.22 32.8924 1717.57 34.4764C1715.93 36.0364 1713.21 36.8164 1709.39 36.8164ZM1706.44 32.6764H1708.85C1711.33 32.6764 1713.03 32.1844 1713.97 31.2004C1714.9 30.2164 1715.37 28.4884 1715.37 26.0164C1715.37 23.5204 1714.89 21.7804 1713.93 20.7964C1712.99 19.7884 1711.3 19.2844 1708.85 19.2844H1706.44C1703.99 19.2844 1702.29 19.7884 1701.33 20.7964C1700.39 21.7804 1699.93 23.5204 1699.93 26.0164C1699.93 28.4884 1700.39 30.2164 1701.33 31.2004C1702.27 32.1844 1703.97 32.6764 1706.44 32.6764ZM1737.2 15.2164H1737.85C1741.26 15.2164 1743.7 15.9724 1745.19 17.4844C1746.68 18.9964 1747.42 21.6484 1747.42 25.4404V36.3124H1742.64V25.4404C1742.64 23.1604 1742.23 21.5644 1741.41 20.6524C1740.62 19.7404 1739.1 19.2844 1736.84 19.2844H1735.04C1732.76 19.2844 1731.07 19.8124 1729.96 20.8684C1728.88 21.9004 1728.34 23.6284 1728.34 26.0524V36.2764H1723.52V15.7204H1727.84V20.2204C1729.3 16.8844 1732.42 15.2164 1737.2 15.2164Z" fill="#121212"/>
<path d="M1843.03 21.5884H1848.86C1853.3 21.5884 1856.53 22.1644 1858.54 23.3164C1860.56 24.4444 1861.57 26.3044 1861.57 28.8964C1861.57 34.1764 1857.31 36.8164 1848.79 36.8164H1844.18C1839.74 36.8164 1836.44 36.0844 1834.28 34.6204C1832.14 33.1324 1831.07 30.8524 1831.07 27.7804H1836.08C1836.08 30.9484 1838.54 32.5324 1843.46 32.5324H1850.01C1852.29 32.5324 1853.92 32.2444 1854.91 31.6684C1855.91 31.0684 1856.42 30.1804 1856.42 29.0044C1856.42 27.9004 1855.94 27.0964 1854.98 26.5924C1854.04 26.0884 1852.48 25.8364 1850.3 25.8364H1844C1839.41 25.8364 1836.17 25.2724 1834.28 24.1444C1832.38 23.0164 1831.43 21.1324 1831.43 18.4924C1831.43 17.0044 1831.75 15.7444 1832.37 14.7124C1832.99 13.6564 1833.88 12.8284 1835.03 12.2284C1836.21 11.6284 1837.54 11.1964 1839.03 10.9324C1840.54 10.6684 1842.27 10.5364 1844.21 10.5364H1848.1C1852.54 10.5364 1855.83 11.2804 1857.97 12.7684C1860.13 14.2324 1861.21 16.5004 1861.21 19.5724H1856.2C1856.2 18.0844 1855.61 16.9204 1854.44 16.0804C1853.26 15.2404 1851.47 14.8204 1849.07 14.8204H1843.24C1838.71 14.8204 1836.44 16.0204 1836.44 18.4204C1836.44 19.5484 1836.92 20.3644 1837.88 20.8684C1838.86 21.3484 1840.58 21.5884 1843.03 21.5884ZM1874.47 15.1804H1878.21C1881.86 15.1804 1884.45 15.9244 1885.99 17.4124C1887.55 18.9004 1888.33 21.5284 1888.33 25.2964V36.2764H1883.54V32.4244C1882.25 35.3524 1879.44 36.8164 1875.12 36.8164H1873.97C1867.34 36.8164 1864.03 34.4764 1864.03 29.7964C1864.03 27.6844 1864.79 26.2684 1866.3 25.5484C1867.81 24.8284 1870.21 24.4684 1873.5 24.4684H1883.51C1883.41 22.4524 1882.94 21.0484 1882.1 20.2564C1881.29 19.4644 1879.82 19.0684 1877.71 19.0684H1874.4C1870.94 19.0684 1869.21 20.2324 1869.21 22.5604H1864.53C1864.53 20.0404 1865.34 18.1804 1866.95 16.9804C1868.58 15.7804 1871.09 15.1804 1874.47 15.1804ZM1873.93 33.1804H1876.67C1878.92 33.1804 1880.6 32.7124 1881.71 31.7764C1882.81 30.8164 1883.41 29.2204 1883.51 26.9884H1873.97C1872.07 26.9884 1870.73 27.1924 1869.93 27.6004C1869.14 27.9844 1868.75 28.7164 1868.75 29.7964C1868.75 32.0524 1870.47 33.1804 1873.93 33.1804ZM1902.24 15.1804H1905.99C1909.64 15.1804 1912.23 15.9244 1913.76 17.4124C1915.32 18.9004 1916.1 21.5284 1916.1 25.2964V36.2764H1911.32V32.4244C1910.02 35.3524 1907.21 36.8164 1902.89 36.8164H1901.74C1895.12 36.8164 1891.8 34.4764 1891.8 29.7964C1891.8 27.6844 1892.56 26.2684 1894.07 25.5484C1895.58 24.8284 1897.98 24.4684 1901.27 24.4684H1911.28C1911.18 22.4524 1910.72 21.0484 1909.88 20.2564C1909.06 19.4644 1907.6 19.0684 1905.48 19.0684H1902.17C1898.72 19.0684 1896.99 20.2324 1896.99 22.5604H1892.31C1892.31 20.0404 1893.11 18.1804 1894.72 16.9804C1896.35 15.7804 1898.86 15.1804 1902.24 15.1804ZM1901.7 33.1804H1904.44C1906.7 33.1804 1908.38 32.7124 1909.48 31.7764C1910.58 30.8164 1911.18 29.2204 1911.28 26.9884H1901.74C1899.84 26.9884 1898.5 27.1924 1897.71 27.6004C1896.92 27.9844 1896.52 28.7164 1896.52 29.7964C1896.52 32.0524 1898.25 33.1804 1901.7 33.1804ZM1930.88 21.5884H1936.71C1941.15 21.5884 1944.38 22.1644 1946.4 23.3164C1948.41 24.4444 1949.42 26.3044 1949.42 28.8964C1949.42 34.1764 1945.16 36.8164 1936.64 36.8164H1932.03C1927.59 36.8164 1924.29 36.0844 1922.13 34.6204C1920 33.1324 1918.93 30.8524 1918.93 27.7804H1923.93C1923.93 30.9484 1926.39 32.5324 1931.31 32.5324H1937.87C1940.15 32.5324 1941.78 32.2444 1942.76 31.6684C1943.77 31.0684 1944.27 30.1804 1944.27 29.0044C1944.27 27.9004 1943.79 27.0964 1942.83 26.5924C1941.9 26.0884 1940.34 25.8364 1938.15 25.8364H1931.85C1927.27 25.8364 1924.03 25.2724 1922.13 24.1444C1920.24 23.0164 1919.29 21.1324 1919.29 18.4924C1919.29 17.0044 1919.6 15.7444 1920.23 14.7124C1920.85 13.6564 1921.74 12.8284 1922.89 12.2284C1924.07 11.6284 1925.4 11.1964 1926.89 10.9324C1928.4 10.6684 1930.13 10.5364 1932.07 10.5364H1935.96C1940.4 10.5364 1943.69 11.2804 1945.82 12.7684C1947.98 14.2324 1949.06 16.5004 1949.06 19.5724H1944.06C1944.06 18.0844 1943.47 16.9204 1942.29 16.0804C1941.12 15.2404 1939.33 14.8204 1936.93 14.8204H1931.1C1926.56 14.8204 1924.29 16.0204 1924.29 18.4204C1924.29 19.5484 1924.77 20.3644 1925.73 20.8684C1926.72 21.3484 1928.43 21.5884 1930.88 21.5884Z" fill="#121212"/>
<path d="M2067.82 11.0764V36.2764H2062.78L2063 13.9204L2053.75 36.2764H2046.8L2037.55 13.8484L2037.76 36.2764H2032.72V11.0764H2041.11L2050.4 33.5764L2059.72 11.0764H2067.82ZM2085.08 36.8164H2081.59C2077.78 36.8164 2075.04 36.0364 2073.38 34.4764C2071.75 32.8924 2070.94 30.0724 2070.94 26.0164C2070.94 21.9604 2071.76 19.1404 2073.42 17.5564C2075.08 15.9724 2077.8 15.1804 2081.59 15.1804H2085.08C2088.88 15.1804 2091.6 15.9724 2093.26 17.5564C2094.91 19.1404 2095.74 21.9604 2095.74 26.0164C2095.74 30.0724 2094.91 32.8924 2093.26 34.4764C2091.62 36.0364 2088.9 36.8164 2085.08 36.8164ZM2082.13 32.6764H2084.54C2087.02 32.6764 2088.72 32.1844 2089.66 31.2004C2090.59 30.2164 2091.06 28.4884 2091.06 26.0164C2091.06 23.5204 2090.58 21.7804 2089.62 20.7964C2088.68 19.7884 2086.99 19.2844 2084.54 19.2844H2082.13C2079.68 19.2844 2077.98 19.7884 2077.02 20.7964C2076.08 21.7804 2075.62 23.5204 2075.62 26.0164C2075.62 28.4884 2076.08 30.2164 2077.02 31.2004C2077.96 32.1844 2079.66 32.6764 2082.13 32.6764ZM2112.57 15.1804H2113.21C2116.57 15.1804 2119.05 15.9844 2120.63 17.5924C2122.24 19.2004 2123.04 22.0084 2123.04 26.0164C2123.04 30.0244 2122.24 32.8324 2120.63 34.4404C2119.05 36.0484 2116.57 36.8524 2113.21 36.8524H2112.57C2108.46 36.8524 2105.62 35.5324 2104.03 32.8924V36.2764H2099.21V9.27636H2104.03V19.1404C2105.62 16.5004 2108.46 15.1804 2112.57 15.1804ZM2110.51 32.7484H2112.24C2114.47 32.7484 2116.05 32.2444 2116.96 31.2364C2117.89 30.2044 2118.36 28.4644 2118.36 26.0164C2118.36 23.5684 2117.89 21.8404 2116.96 20.8324C2116.05 19.8004 2114.47 19.2844 2112.24 19.2844H2110.51C2108.28 19.2844 2106.64 19.8124 2105.58 20.8684C2104.55 21.9004 2104.03 23.6164 2104.03 26.0164C2104.03 28.4164 2104.55 30.1444 2105.58 31.2004C2106.64 32.2324 2108.28 32.7484 2110.51 32.7484ZM2129.3 13.1644H2128.47C2127.51 13.1644 2126.82 12.9724 2126.38 12.5884C2125.98 12.1804 2125.77 11.5084 2125.77 10.5724C2125.77 9.66037 2125.98 9.01237 2126.38 8.62837C2126.82 8.24437 2127.51 8.05237 2128.47 8.05237H2129.3C2130.26 8.05237 2130.96 8.24437 2131.39 8.62837C2131.82 9.01237 2132.04 9.66037 2132.04 10.5724C2132.04 11.5084 2131.82 12.1804 2131.39 12.5884C2130.96 12.9724 2130.26 13.1644 2129.3 13.1644ZM2131.32 36.2764H2126.49V15.7204H2131.32V36.2764ZM2139.96 36.2764H2135.14V9.27636H2139.96V36.2764ZM2168.2 24.6844V27.3484H2148.14C2148.29 29.3644 2148.84 30.7804 2149.8 31.5964C2150.78 32.4124 2152.39 32.8204 2154.62 32.8204H2157.58C2161.51 32.8204 2163.48 31.5124 2163.48 28.8964H2168.2C2168.2 31.7044 2167.32 33.7324 2165.57 34.9804C2163.82 36.2044 2161.15 36.8164 2157.58 36.8164H2154.08C2150.27 36.8164 2147.53 36.0364 2145.88 34.4764C2144.24 32.8924 2143.43 30.0724 2143.43 26.0164C2143.43 21.9604 2144.26 19.1404 2145.91 17.5564C2147.57 15.9724 2150.29 15.1804 2154.08 15.1804H2157.58C2161.2 15.1804 2163.88 15.8884 2165.6 17.3044C2167.33 18.7204 2168.2 21.1804 2168.2 24.6844ZM2148.14 24.6844H2163.48C2163.48 22.6684 2162.98 21.2524 2161.97 20.4364C2160.98 19.5964 2159.36 19.1764 2157.11 19.1764H2154.62C2152.37 19.1764 2150.76 19.5964 2149.8 20.4364C2148.84 21.2524 2148.29 22.6684 2148.14 24.6844ZM2208.76 36.2764H2203.33L2201.49 31.9924H2184.71L2182.81 36.2764H2177.41L2188.82 11.0764H2197.71L2208.76 36.2764ZM2192.27 15.0724L2186.48 28.0324H2199.8L2194.25 15.0724H2192.27ZM2223.31 15.1804H2223.96C2227.32 15.1804 2229.79 15.9844 2231.37 17.5924C2232.98 19.2004 2233.78 22.0084 2233.78 26.0164C2233.78 30.0244 2232.98 32.8324 2231.37 34.4404C2229.79 36.0484 2227.32 36.8524 2223.96 36.8524H2223.31C2219.2 36.8524 2216.36 35.5324 2214.78 32.8924V42.7564H2209.95V15.7564H2214.78V19.1404C2216.36 16.5004 2219.2 15.1804 2223.31 15.1804ZM2221.26 32.7484H2222.98C2225.22 32.7484 2226.79 32.2444 2227.7 31.2364C2228.64 30.2044 2229.1 28.4644 2229.1 26.0164C2229.1 23.5684 2228.64 21.8404 2227.7 20.8324C2226.79 19.8004 2225.22 19.2844 2222.98 19.2844H2221.26C2219.02 19.2844 2217.38 19.8124 2216.32 20.8684C2215.29 21.9004 2214.78 23.6164 2214.78 26.0164C2214.78 28.4164 2215.29 30.1444 2216.32 31.2004C2217.38 32.2324 2219.02 32.7484 2221.26 32.7484ZM2250.59 15.1804H2251.24C2254.6 15.1804 2257.07 15.9844 2258.65 17.5924C2260.26 19.2004 2261.07 22.0084 2261.07 26.0164C2261.07 30.0244 2260.26 32.8324 2258.65 34.4404C2257.07 36.0484 2254.6 36.8524 2251.24 36.8524H2250.59C2246.49 36.8524 2243.64 35.5324 2242.06 32.8924V42.7564H2237.23V15.7564H2242.06V19.1404C2243.64 16.5004 2246.49 15.1804 2250.59 15.1804ZM2248.54 32.7484H2250.27C2252.5 32.7484 2254.07 32.2444 2254.98 31.2364C2255.92 30.2044 2256.39 28.4644 2256.39 26.0164C2256.39 23.5684 2255.92 21.8404 2254.98 20.8324C2254.07 19.8004 2252.5 19.2844 2250.27 19.2844H2248.54C2246.31 19.2844 2244.66 19.8124 2243.61 20.8684C2242.57 21.9004 2242.06 23.6164 2242.06 26.0164C2242.06 28.4164 2242.57 30.1444 2243.61 31.2004C2244.66 32.2324 2246.31 32.7484 2248.54 32.7484Z" fill="#121212"/>
<path d="M2344.72 11.0764H2349.91V31.7044H2364.41V36.2764H2344.72V11.0764ZM2380.46 36.8164H2376.96C2373.15 36.8164 2370.41 36.0364 2368.76 34.4764C2367.12 32.8924 2366.31 30.0724 2366.31 26.0164C2366.31 21.9604 2367.14 19.1404 2368.79 17.5564C2370.45 15.9724 2373.17 15.1804 2376.96 15.1804H2380.46C2384.25 15.1804 2386.97 15.9724 2388.63 17.5564C2390.28 19.1404 2391.11 21.9604 2391.11 26.0164C2391.11 30.0724 2390.28 32.8924 2388.63 34.4764C2387 36.0364 2384.27 36.8164 2380.46 36.8164ZM2377.5 32.6764H2379.92C2382.39 32.6764 2384.09 32.1844 2385.03 31.2004C2385.96 30.2164 2386.43 28.4884 2386.43 26.0164C2386.43 23.5204 2385.95 21.7804 2384.99 20.7964C2384.06 19.7884 2382.36 19.2844 2379.92 19.2844H2377.5C2375.06 19.2844 2373.35 19.7884 2372.39 20.7964C2371.46 21.7804 2370.99 23.5204 2370.99 26.0164C2370.99 28.4884 2371.46 30.2164 2372.39 31.2004C2373.33 32.1844 2375.03 32.6764 2377.5 32.6764ZM2413.23 18.9964V15.7204H2418.05V34.2604C2418.05 37.7644 2417.32 40.1644 2415.86 41.4604C2414.39 42.7804 2411.92 43.4404 2408.44 43.4404H2395.66V39.3364H2408.44C2410.31 39.3364 2411.57 38.9764 2412.22 38.2564C2412.89 37.5604 2413.23 36.2284 2413.23 34.2604V32.1724C2411.62 34.7164 2408.77 35.9884 2404.66 35.9884H2404.01C2400.7 35.9884 2398.24 35.2084 2396.63 33.6484C2395.03 32.0884 2394.22 29.4004 2394.22 25.5844C2394.22 21.7684 2395.03 19.0804 2396.63 17.5204C2398.24 15.9604 2400.7 15.1804 2404.01 15.1804H2404.66C2408.77 15.1804 2411.62 16.4524 2413.23 18.9964ZM2405.02 31.8844H2406.71C2408.97 31.8844 2410.61 31.3924 2411.65 30.4084C2412.7 29.4004 2413.23 27.7924 2413.23 25.5844C2413.23 23.3764 2412.7 21.7804 2411.65 20.7964C2410.61 19.7884 2408.97 19.2844 2406.71 19.2844H2405.02C2402.84 19.2844 2401.27 19.7764 2400.31 20.7604C2399.37 21.7444 2398.9 23.3524 2398.9 25.5844C2398.9 27.8164 2399.37 29.4244 2400.31 30.4084C2401.27 31.3924 2402.84 31.8844 2405.02 31.8844ZM2435.65 36.8164H2432.16C2428.34 36.8164 2425.61 36.0364 2423.95 34.4764C2422.32 32.8924 2421.5 30.0724 2421.5 26.0164C2421.5 21.9604 2422.33 19.1404 2423.99 17.5564C2425.64 15.9724 2428.37 15.1804 2432.16 15.1804H2435.65C2439.44 15.1804 2442.17 15.9724 2443.82 17.5564C2445.48 19.1404 2446.31 21.9604 2446.31 26.0164C2446.31 30.0724 2445.48 32.8924 2443.82 34.4764C2442.19 36.0364 2439.47 36.8164 2435.65 36.8164ZM2432.7 32.6764H2435.11C2437.58 32.6764 2439.29 32.1844 2440.22 31.2004C2441.16 30.2164 2441.63 28.4884 2441.63 26.0164C2441.63 23.5204 2441.15 21.7804 2440.19 20.7964C2439.25 19.7884 2437.56 19.2844 2435.11 19.2844H2432.7C2430.25 19.2844 2428.55 19.7884 2427.59 20.7964C2426.65 21.7804 2426.18 23.5204 2426.18 26.0164C2426.18 28.4884 2426.65 30.2164 2427.59 31.2004C2428.52 32.1844 2430.23 32.6764 2432.7 32.6764ZM2476.37 11.0764C2480.91 11.0764 2484.17 12.0244 2486.17 13.9204C2488.16 15.7924 2489.15 19.0444 2489.15 23.6764C2489.15 28.3084 2488.16 31.5724 2486.17 33.4684C2484.17 35.3404 2480.91 36.2764 2476.37 36.2764H2460.21V11.0764H2476.37ZM2465.39 31.7044H2476.12C2479.05 31.7044 2481.08 31.1164 2482.21 29.9404C2483.33 28.7644 2483.9 26.6764 2483.9 23.6764C2483.9 20.6764 2483.33 18.5884 2482.21 17.4124C2481.08 16.2364 2479.05 15.6484 2476.12 15.6484H2465.39V31.7044ZM2516.37 24.6844V27.3484H2496.32C2496.46 29.3644 2497.02 30.7804 2497.98 31.5964C2498.96 32.4124 2500.57 32.8204 2502.8 32.8204H2505.75C2509.69 32.8204 2511.66 31.5124 2511.66 28.8964H2516.37C2516.37 31.7044 2515.5 33.7324 2513.74 34.9804C2511.99 36.2044 2509.33 36.8164 2505.75 36.8164H2502.26C2498.44 36.8164 2495.71 36.0364 2494.05 34.4764C2492.42 32.8924 2491.6 30.0724 2491.6 26.0164C2491.6 21.9604 2492.43 19.1404 2494.09 17.5564C2495.74 15.9724 2498.47 15.1804 2502.26 15.1804H2505.75C2509.38 15.1804 2512.05 15.8884 2513.78 17.3044C2515.51 18.7204 2516.37 21.1804 2516.37 24.6844ZM2496.32 24.6844H2511.66C2511.66 22.6684 2511.15 21.2524 2510.14 20.4364C2509.16 19.5964 2507.54 19.1764 2505.28 19.1764H2502.8C2500.54 19.1764 2498.94 19.5964 2497.98 20.4364C2497.02 21.2524 2496.46 22.6684 2496.32 24.6844ZM2528.95 24.1444H2534.17C2535.56 24.1444 2536.73 24.1804 2537.66 24.2524C2538.62 24.3244 2539.55 24.4804 2540.44 24.7204C2541.35 24.9604 2542.07 25.2844 2542.6 25.6924C2543.12 26.1004 2543.54 26.6644 2543.86 27.3844C2544.17 28.0804 2544.32 28.9324 2544.32 29.9404C2544.32 32.1244 2543.45 33.8164 2541.7 35.0164C2539.94 36.2164 2537.39 36.8164 2534.03 36.8164H2529.71C2526.2 36.8164 2523.6 36.2644 2521.9 35.1604C2520.22 34.0324 2519.38 32.1484 2519.38 29.5084H2524.09C2524.09 30.7324 2524.5 31.6324 2525.32 32.2084C2526.13 32.7604 2527.43 33.0364 2529.2 33.0364H2534.24C2537.84 33.0364 2539.64 32.0764 2539.64 30.1564C2539.64 29.2444 2539.2 28.6204 2538.31 28.2844C2537.45 27.9244 2536.15 27.7444 2534.42 27.7444H2529.42C2526.13 27.7444 2523.72 27.3244 2522.18 26.4844C2520.65 25.6204 2519.88 24.0364 2519.88 21.7324C2519.88 17.2924 2523.28 15.0724 2530.07 15.0724H2533.78C2537.35 15.0724 2539.94 15.6124 2541.55 16.6924C2543.16 17.7724 2543.96 19.5964 2543.96 22.1644H2539.25C2539.25 19.9324 2537.59 18.8164 2534.28 18.8164H2529.64C2526.3 18.8164 2524.63 19.7884 2524.63 21.7324C2524.63 23.3404 2526.07 24.1444 2528.95 24.1444ZM2550.5 13.1644H2549.67C2548.71 13.1644 2548.01 12.9724 2547.58 12.5884C2547.17 12.1804 2546.97 11.5084 2546.97 10.5724C2546.97 9.66037 2547.17 9.01237 2547.58 8.62837C2548.01 8.24437 2548.71 8.05237 2549.67 8.05237H2550.5C2551.46 8.05237 2552.15 8.24437 2552.58 8.62837C2553.02 9.01237 2553.23 9.66037 2553.23 10.5724C2553.23 11.5084 2553.02 12.1804 2552.58 12.5884C2552.15 12.9724 2551.46 13.1644 2550.5 13.1644ZM2552.51 36.2764H2547.69V15.7204H2552.51V36.2764ZM2574.98 18.9964V15.7204H2579.81V34.2604C2579.81 37.7644 2579.08 40.1644 2577.61 41.4604C2576.15 42.7804 2573.68 43.4404 2570.2 43.4404H2557.42V39.3364H2570.2C2572.07 39.3364 2573.33 38.9764 2573.98 38.2564C2574.65 37.5604 2574.98 36.2284 2574.98 34.2604V32.1724C2573.38 34.7164 2570.52 35.9884 2566.42 35.9884H2565.77C2562.46 35.9884 2560 35.2084 2558.39 33.6484C2556.78 32.0884 2555.98 29.4004 2555.98 25.5844C2555.98 21.7684 2556.78 19.0804 2558.39 17.5204C2560 15.9604 2562.46 15.1804 2565.77 15.1804H2566.42C2570.52 15.1804 2573.38 16.4524 2574.98 18.9964ZM2566.78 31.8844H2568.47C2570.72 31.8844 2572.37 31.3924 2573.4 30.4084C2574.46 29.4004 2574.98 27.7924 2574.98 25.5844C2574.98 23.3764 2574.46 21.7804 2573.4 20.7964C2572.37 19.7884 2570.72 19.2844 2568.47 19.2844H2566.78C2564.59 19.2844 2563.02 19.7764 2562.06 20.7604C2561.12 21.7444 2560.66 23.3524 2560.66 25.5844C2560.66 27.8164 2561.12 29.4244 2562.06 30.4084C2563.02 31.3924 2564.59 31.8844 2566.78 31.8844ZM2597.3 15.2164H2597.94C2601.35 15.2164 2603.8 15.9724 2605.29 17.4844C2606.78 18.9964 2607.52 21.6484 2607.52 25.4404V36.3124H2602.73V25.4404C2602.73 23.1604 2602.32 21.5644 2601.51 20.6524C2600.72 19.7404 2599.19 19.2844 2596.94 19.2844H2595.14C2592.86 19.2844 2591.16 19.8124 2590.06 20.8684C2588.98 21.9004 2588.44 23.6284 2588.44 26.0524V36.2764H2583.62V15.7204H2587.94V20.2204C2589.4 16.8844 2592.52 15.2164 2597.3 15.2164Z" fill="#121212"/>
<path d="M2721.28 31.7044L2727.72 11.0764H2733.12L2724.99 36.2764H2718.33L2711.67 16.2244L2704.86 36.2764H2698.2L2690.17 11.0764H2695.57L2701.95 31.7044L2708.93 11.0764H2714.37L2721.28 31.7044ZM2758.01 24.6844V27.3484H2737.96C2738.1 29.3644 2738.65 30.7804 2739.61 31.5964C2740.6 32.4124 2742.21 32.8204 2744.44 32.8204H2747.39C2751.33 32.8204 2753.29 31.5124 2753.29 28.8964H2758.01C2758.01 31.7044 2757.13 33.7324 2755.38 34.9804C2753.63 36.2044 2750.97 36.8164 2747.39 36.8164H2743.9C2740.08 36.8164 2737.35 36.0364 2735.69 34.4764C2734.06 32.8924 2733.24 30.0724 2733.24 26.0164C2733.24 21.9604 2734.07 19.1404 2735.73 17.5564C2737.38 15.9724 2740.11 15.1804 2743.9 15.1804H2747.39C2751.01 15.1804 2753.69 15.8884 2755.42 17.3044C2757.15 18.7204 2758.01 21.1804 2758.01 24.6844ZM2737.96 24.6844H2753.29C2753.29 22.6684 2752.79 21.2524 2751.78 20.4364C2750.8 19.5964 2749.18 19.1764 2746.92 19.1764H2744.44C2742.18 19.1764 2740.57 19.5964 2739.61 20.4364C2738.65 21.2524 2738.1 22.6684 2737.96 24.6844ZM2774.84 15.1804H2775.48C2778.84 15.1804 2781.32 15.9844 2782.9 17.5924C2784.51 19.2004 2785.31 22.0084 2785.31 26.0164C2785.31 30.0244 2784.51 32.8324 2782.9 34.4404C2781.32 36.0484 2778.84 36.8524 2775.48 36.8524H2774.84C2770.73 36.8524 2767.89 35.5324 2766.3 32.8924V36.2764H2761.48V9.27636H2766.3V19.1404C2767.89 16.5004 2770.73 15.1804 2774.84 15.1804ZM2772.78 32.7484H2774.51C2776.74 32.7484 2778.32 32.2444 2779.23 31.2364C2780.16 30.2044 2780.63 28.4644 2780.63 26.0164C2780.63 23.5684 2780.16 21.8404 2779.23 20.8324C2778.32 19.8004 2776.74 19.2844 2774.51 19.2844H2772.78C2770.55 19.2844 2768.91 19.8124 2767.85 20.8684C2766.82 21.9004 2766.3 23.6164 2766.3 26.0164C2766.3 28.4164 2766.82 30.1444 2767.85 31.2004C2768.91 32.2324 2770.55 32.7484 2772.78 32.7484ZM2798.84 15.1804H2802.59C2806.23 15.1804 2808.83 15.9244 2810.36 17.4124C2811.92 18.9004 2812.7 21.5284 2812.7 25.2964V36.2764H2807.91V32.4244C2806.62 35.3524 2803.81 36.8164 2799.49 36.8164H2798.34C2791.71 36.8164 2788.4 34.4764 2788.4 29.7964C2788.4 27.6844 2789.16 26.2684 2790.67 25.5484C2792.18 24.8284 2794.58 24.4684 2797.87 24.4684H2807.88C2807.78 22.4524 2807.31 21.0484 2806.47 20.2564C2805.66 19.4644 2804.19 19.0684 2802.08 19.0684H2798.77C2795.31 19.0684 2793.59 20.2324 2793.59 22.5604H2788.91C2788.91 20.0404 2789.71 18.1804 2791.32 16.9804C2792.95 15.7804 2795.46 15.1804 2798.84 15.1804ZM2798.3 33.1804H2801.04C2803.29 33.1804 2804.97 32.7124 2806.08 31.7764C2807.18 30.8164 2807.78 29.2204 2807.88 26.9884H2798.34C2796.44 26.9884 2795.1 27.1924 2794.31 27.6004C2793.51 27.9844 2793.12 28.7164 2793.12 29.7964C2793.12 32.0524 2794.85 33.1804 2798.3 33.1804ZM2829.89 15.1804H2830.54C2833.9 15.1804 2836.37 15.9844 2837.95 17.5924C2839.56 19.2004 2840.37 22.0084 2840.37 26.0164C2840.37 30.0244 2839.56 32.8324 2837.95 34.4404C2836.37 36.0484 2833.9 36.8524 2830.54 36.8524H2829.89C2825.79 36.8524 2822.94 35.5324 2821.36 32.8924V42.7564H2816.53V15.7564H2821.36V19.1404C2822.94 16.5004 2825.79 15.1804 2829.89 15.1804ZM2827.84 32.7484H2829.57C2831.8 32.7484 2833.37 32.2444 2834.28 31.2364C2835.22 30.2044 2835.69 28.4644 2835.69 26.0164C2835.69 23.5684 2835.22 21.8404 2834.28 20.8324C2833.37 19.8004 2831.8 19.2844 2829.57 19.2844H2827.84C2825.61 19.2844 2823.96 19.8124 2822.91 20.8684C2821.87 21.9004 2821.36 23.6164 2821.36 26.0164C2821.36 28.4164 2821.87 30.1444 2822.91 31.2004C2823.96 32.2324 2825.61 32.7484 2827.84 32.7484ZM2857.17 15.1804H2857.82C2861.18 15.1804 2863.65 15.9844 2865.24 17.5924C2866.84 19.2004 2867.65 22.0084 2867.65 26.0164C2867.65 30.0244 2866.84 32.8324 2865.24 34.4404C2863.65 36.0484 2861.18 36.8524 2857.82 36.8524H2857.17C2853.07 36.8524 2850.22 35.5324 2848.64 32.8924V42.7564H2843.82V15.7564H2848.64V19.1404C2850.22 16.5004 2853.07 15.1804 2857.17 15.1804ZM2855.12 32.7484H2856.85C2859.08 32.7484 2860.65 32.2444 2861.56 31.2364C2862.5 30.2044 2862.97 28.4644 2862.97 26.0164C2862.97 23.5684 2862.5 21.8404 2861.56 20.8324C2860.65 19.8004 2859.08 19.2844 2856.85 19.2844H2855.12C2852.89 19.2844 2851.24 19.8124 2850.19 20.8684C2849.16 21.9004 2848.64 23.6164 2848.64 26.0164C2848.64 28.4164 2849.16 30.1444 2850.19 31.2004C2851.24 32.2324 2852.89 32.7484 2855.12 32.7484Z" fill="#121212"/>
</svg>
